<svg width="46" height="46" viewBox="0 0 46 46" fill="none" xmlns="http://www.w3.org/2000/svg">
<path fill-rule="evenodd" clip-rule="evenodd" d="M25.2727 9.20026C25.2727 14.6084 22.2339 17.6505 16.8225 17.6505C11.4143 17.6505 8.37223 14.6084 8.37223 9.20026C8.37223 3.79209 11.4143 0.75 16.8225 0.75C22.2339 0.75 25.2727 3.79209 25.2727 9.20026ZM25.939 23.1757C23.0351 22.0394 19.944 21.4574 16.8257 21.4596C11.8959 21.4535 7.07514 22.9104 2.97381 25.6458C1.66077 26.5233 0.789747 27.6771 0.428985 28.9934C0.095737 30.2547 0.230829 31.5941 0.809247 32.7635C1.90128 35.0418 4.43636 36.6863 7.49795 36.6863H18.8831C18.7261 34.9907 18.737 33.2837 18.9156 31.5902C19.2926 27.9956 22.2437 25.6425 25.3833 25.3728C25.4548 24.6187 25.6433 23.8745 25.939 23.1757ZM29.5954 24.9632C29.4891 25.27 29.43 25.5911 29.4199 25.9155C29.3874 27.0596 29.3549 28.1938 29.3354 29.3216C28.1978 29.3411 27.0506 29.3704 25.8903 29.4061C24.4017 29.4549 23.1147 30.5242 22.9587 32.0095C22.7962 33.5598 22.7962 35.0646 22.9587 36.6148C23.1147 38.1001 24.3985 39.1694 25.8935 39.2149C27.0506 39.2539 28.1946 39.2799 29.3354 39.3027C29.3549 40.4305 29.3841 41.5615 29.4199 42.7055C29.4686 44.2006 30.5379 45.4876 32.02 45.6436C33.5735 45.8061 35.0751 45.8061 36.6286 45.6436C38.1139 45.4876 39.1832 44.2006 39.2287 42.7055C39.2644 41.5615 39.2937 40.4305 39.3164 39.3027C40.4312 39.2799 41.559 39.2507 42.69 39.2149C44.1851 39.1694 45.4721 38.1001 45.6281 36.6148C45.7906 35.0646 45.7906 33.5598 45.6281 32.0095C45.4721 30.5242 44.1851 29.4549 42.6933 29.4094C41.5668 29.3739 40.44 29.3446 39.3132 29.3216C39.2919 28.1861 39.2638 27.0507 39.2287 25.9155C39.1832 24.4205 38.1139 23.1334 36.6286 22.9807C35.0783 22.8182 33.5735 22.8182 32.0232 22.9807C31.4713 23.0445 30.9493 23.2651 30.519 23.6165C30.0887 23.9679 29.7682 24.4353 29.5954 24.9632Z" fill="#257BFC"/>
</svg>
