<svg width="130" height="67" viewBox="0 0 130 67" fill="none" xmlns="http://www.w3.org/2000/svg">
<g clip-path="url(#clip0_871_1839)">
<path fill-rule="evenodd" clip-rule="evenodd" d="M76.0809 36.8798C76.0809 37.9556 75.8674 38.9052 75.4452 39.7287C75.0183 40.5545 74.4482 41.2335 73.7281 41.7656C72.8766 42.4079 71.9618 42.8598 70.993 43.1305C70.0219 43.3965 68.7646 43.5296 67.2258 43.5296H60.7422V21.876H66.7379C68.3494 21.876 69.5551 21.9264 70.3597 22.0274C71.1642 22.1283 71.9383 22.3669 72.6772 22.7476C73.4865 23.1628 74.08 23.7087 74.4506 24.3808C74.8259 25.0529 75.0136 25.8466 75.0136 26.7526C75.0136 27.7734 74.7321 28.684 74.1691 29.4846C73.6085 30.2897 72.8297 30.9205 71.8375 31.3724V31.4893C73.1839 31.8403 74.2277 32.478 74.9667 33.4047C75.7079 34.3314 76.0762 35.4852 76.0762 36.8752L76.0809 36.8798ZM71.8844 27.1655C71.8844 26.6379 71.7929 26.1883 71.6076 25.8007C71.4293 25.4222 71.1337 25.1171 70.7303 24.8946C70.2424 24.6331 69.7005 24.4726 69.1023 24.4129C68.5065 24.3579 67.6808 24.3281 66.6276 24.3281H63.74V30.6682H67.1601C68.1007 30.6682 68.7974 30.6223 69.2407 30.5282C69.6864 30.4342 70.1462 30.2461 70.6224 29.9548C71.0798 29.6772 71.4035 29.3056 71.5958 28.8515C71.7882 28.395 71.8844 27.8307 71.8844 27.1655ZM72.954 36.9968C72.954 36.1802 72.8297 35.5081 72.5857 34.9759C72.3418 34.4484 71.8515 33.9988 71.115 33.6318C70.6364 33.3863 70.118 33.2326 69.5574 33.1638C68.9944 33.0973 68.1969 33.0629 67.1624 33.0629H63.74V41.0798H66.1913C67.5072 41.0798 68.5464 41.0201 69.3064 40.9032C70.0664 40.7862 70.7373 40.5407 71.312 40.16C71.8797 39.7815 72.2925 39.3502 72.5576 38.8708C72.8227 38.3891 72.9564 37.7652 72.9564 36.9991L72.954 36.9968Z" fill="white"/>
<path fill-rule="evenodd" clip-rule="evenodd" d="M79.0791 43.5296V21.876H93.2426V24.4359H82.0793V30.37H92.4826V32.9345H82.0793V40.9674H93.2426V43.5296H79.0791Z" fill="white"/>
<path fill-rule="evenodd" clip-rule="evenodd" d="M102.832 43.9149C101.19 43.9149 99.799 43.7497 98.6496 43.4309C97.5002 43.1075 96.4212 42.7038 95.4102 42.2312V38.6277H95.6236C96.6135 39.5177 97.7348 40.2058 98.9921 40.6944C100.245 41.183 101.457 41.4261 102.621 41.4261C104.277 41.4261 105.532 41.0981 106.383 40.4329C107.233 39.7677 107.657 38.8914 107.657 37.8088C107.657 36.944 107.432 36.2444 106.989 35.7008C106.545 35.1571 105.837 34.7557 104.863 34.4919C104.167 34.2992 103.529 34.141 102.952 34.0148C102.375 33.8886 101.65 33.7189 100.78 33.5079C100.001 33.3129 99.2994 33.0652 98.6824 32.7647C98.0679 32.4642 97.5213 32.0719 97.0428 31.5879C96.576 31.1108 96.2147 30.5557 95.9567 29.9066C95.6963 29.2666 95.5697 28.5234 95.5697 27.6793C95.5697 25.9245 96.2828 24.4542 97.7137 23.266C99.1375 22.0824 100.96 21.4883 103.175 21.4883C104.441 21.4883 105.635 21.6099 106.766 21.853C107.892 22.0961 108.938 22.4402 109.897 22.8852V26.3374H109.67C108.954 25.7043 108.032 25.1561 106.909 24.6836C105.785 24.2133 104.605 23.9794 103.374 23.9794C101.978 23.9794 100.852 24.2913 99.989 24.9129C99.1281 25.5392 98.7012 26.3603 98.7012 27.3765C98.7012 28.294 98.9545 29.0258 99.4589 29.5694C99.9656 30.113 100.7 30.5121 101.659 30.7622C102.3 30.925 103.076 31.1131 103.998 31.3219C104.92 31.5283 105.682 31.7233 106.292 31.8976C107.85 32.3541 108.99 33.0422 109.705 33.962C110.425 34.8842 110.784 36.0173 110.784 37.3638C110.784 38.2033 110.603 39.0405 110.247 39.8617C109.886 40.6875 109.381 41.3871 108.734 41.9583C108.007 42.5868 107.183 43.0731 106.269 43.4126C105.354 43.752 104.207 43.9195 102.832 43.9195V43.9149Z" fill="white"/>
<path fill-rule="evenodd" clip-rule="evenodd" d="M119.144 43.5296V24.4359H111.546V21.876H129.744V24.4359H122.146V43.5296H119.144Z" fill="white"/>
<path d="M117.64 52.2553H114.328V46.4336H115.088V51.5671H117.64V52.2553ZM122.379 46.4336L120.413 52.2553H119.594L117.629 46.4336H118.443L120.024 51.2575L121.602 46.4336H122.381H122.379ZM124.921 52.2553H122.702V51.6612H123.432V47.0277H122.702V46.4336H124.921V47.0277H124.192V51.6612H124.921V52.2553ZM129.998 46.4336L128.032 52.2553H127.211L125.247 46.4336H126.061L127.642 51.2575L129.221 46.4336H129.995H129.998Z" fill="white"/>
<path fill-rule="evenodd" clip-rule="evenodd" d="M49.457 43.5574L44.477 40.6328H31.47L26.4854 43.5574C31.2519 51.9941 45.5045 65.8051 60.9417 67.0002C55.5629 63.9311 47.001 52.9001 49.4594 43.5574H49.457Z" fill="white"/>
<path fill-rule="evenodd" clip-rule="evenodd" d="M52.9737 0C53.0558 6.28275 47.9609 19.346 38.7891 21.8532V27.7139L45.2962 39.1875L50.2738 42.119C55.0638 33.6938 59.6802 14.2193 52.9737 0.00229381V0Z" fill="white"/>
<path fill-rule="evenodd" clip-rule="evenodd" d="M37.1563 21.8506C27.6045 21.8391 8.73313 27.5026 0 40.5245C5.30134 37.3155 18.9558 35.274 25.6716 42.1164L30.6492 39.185L37.1539 27.7113L37.1586 21.8506H37.1563Z" fill="white"/>
<path fill-rule="evenodd" clip-rule="evenodd" d="M34.9209 35.8382C34.9209 34.127 36.2861 32.7393 37.9703 32.7393C39.6546 32.7393 41.0198 34.127 41.0198 35.8382C41.0198 37.5494 39.6546 38.9463 37.9703 38.9463C36.2861 38.9463 34.9209 37.5586 34.9209 35.8382Z" fill="white"/>
</g>
<defs>
<clipPath id="clip0_871_1839">
<rect width="130" height="67" fill="white"/>
</clipPath>
</defs>
</svg>
