<svg width="415" height="219" viewBox="0 0 415 219" fill="none" xmlns="http://www.w3.org/2000/svg">
<g clip-path="url(#clip0_894_3010)">
<path fill-rule="evenodd" clip-rule="evenodd" d="M242.789 120.106C242.789 123.609 242.109 126.702 240.765 129.384C239.405 132.073 237.59 134.284 235.297 136.018C232.585 138.109 229.671 139.581 226.586 140.462C223.494 141.329 219.49 141.762 214.589 141.762H193.941V71.2432H213.035C218.167 71.2432 222.007 71.4075 224.569 71.7362C227.132 72.0649 229.597 72.8418 231.95 74.0818C234.527 75.434 236.417 77.2119 237.597 79.4007C238.793 81.5894 239.39 84.1741 239.39 87.1249C239.39 90.4491 238.494 93.4148 236.701 96.0219C234.916 98.644 232.435 100.698 229.276 102.17V102.551C233.563 103.694 236.888 105.771 239.241 108.789C241.601 111.807 242.774 115.564 242.774 120.091L242.789 120.106ZM229.425 88.4695C229.425 86.7514 229.134 85.2872 228.543 84.0247C227.976 82.7921 227.035 81.7986 225.75 81.074C224.196 80.2224 222.47 79.6995 220.565 79.5052C218.668 79.3259 216.038 79.2288 212.684 79.2288H203.488V99.8765H214.38C217.375 99.8765 219.594 99.7271 221.006 99.4209C222.425 99.1146 223.89 98.502 225.406 97.5533C226.863 96.6494 227.894 95.4392 228.506 93.9601C229.119 92.4735 229.425 90.6359 229.425 88.4695ZM232.831 120.487C232.831 117.827 232.435 115.639 231.659 113.906C230.882 112.187 229.32 110.723 226.975 109.528C225.451 108.729 223.8 108.228 222.015 108.004C220.222 107.788 217.682 107.675 214.387 107.675H203.488V133.784H211.295C215.486 133.784 218.795 133.59 221.215 133.209C223.636 132.828 225.772 132.028 227.602 130.788C229.41 129.556 230.725 128.151 231.569 126.59C232.413 125.021 232.839 122.989 232.839 120.494L232.831 120.487Z" fill="#4682BF"/>
<path fill-rule="evenodd" clip-rule="evenodd" d="M252.336 141.762V71.2432H297.441V79.5799H261.89V98.9054H295.021V107.257H261.89V133.418H297.441V141.762H252.336Z" fill="#4682BF"/>
<path fill-rule="evenodd" clip-rule="evenodd" d="M327.98 143.018C322.75 143.018 318.321 142.48 314.66 141.442C311 140.388 307.563 139.074 304.344 137.535V125.799H305.024C308.176 128.697 311.747 130.939 315.751 132.53C319.74 134.121 323.602 134.913 327.307 134.913C332.581 134.913 336.578 133.844 339.289 131.678C341.994 129.512 343.346 126.658 343.346 123.132C343.346 120.316 342.629 118.037 341.217 116.267C339.805 114.497 337.549 113.189 334.449 112.33C332.23 111.703 330.198 111.187 328.361 110.776C326.523 110.365 324.215 109.813 321.443 109.125C318.963 108.49 316.729 107.684 314.765 106.705C312.808 105.726 311.067 104.449 309.543 102.873C308.056 101.319 306.906 99.5113 306.084 97.3972C305.255 95.313 304.852 92.8926 304.852 90.1436C304.852 84.4289 307.123 79.6405 311.68 75.7709C316.214 71.9162 322.018 69.9814 329.07 69.9814C333.104 69.9814 336.906 70.3774 340.507 71.1692C344.093 71.9611 347.425 73.0816 350.48 74.5308V85.7735H349.755C347.477 83.7117 344.541 81.9263 340.963 80.3875C337.385 78.8561 333.627 78.0941 329.705 78.0941C325.26 78.0941 321.675 79.1101 318.926 81.1345C316.184 83.1739 314.824 85.8482 314.824 89.1575C314.824 92.1456 315.631 94.5286 317.237 96.2991C318.851 98.0695 321.189 99.3693 324.244 100.184C326.284 100.714 328.756 101.327 331.692 102.006C334.628 102.679 337.056 103.314 338.998 103.881C343.958 105.368 347.589 107.609 349.867 110.605C352.161 113.608 353.304 117.298 353.304 121.683C353.304 124.417 352.728 127.144 351.593 129.818C350.443 132.507 348.836 134.786 346.775 136.646C344.459 138.693 341.837 140.276 338.923 141.382C336.01 142.487 332.357 143.033 327.98 143.033V143.018Z" fill="#4682BF"/>
<path fill-rule="evenodd" clip-rule="evenodd" d="M379.928 141.762V79.5799H355.732V71.2432H413.686V79.5799H389.49V141.762H379.928Z" fill="#4682BF"/>
<path d="M375.14 170.179H364.592V151.22H367.012V167.938H375.14V170.179ZM390.237 151.22L383.977 170.179H381.37L375.11 151.22H377.702L382.737 166.93L387.764 151.22H390.245H390.237ZM398.327 170.179H391.261V168.244H393.584V153.155H391.261V151.22H398.327V153.155H396.004V168.244H398.327V170.179ZM414.5 151.22L408.24 170.179H405.626L399.373 151.22H401.965L407 166.93L412.028 151.22H414.493H414.5Z" fill="#4682BF"/>
<path fill-rule="evenodd" clip-rule="evenodd" d="M158.002 141.852L142.142 132.327H100.72L84.8457 141.852C100.025 169.327 145.414 214.305 194.576 218.197C177.447 208.202 150.18 172.278 158.009 141.852H158.002Z" fill="#4682BF"/>
<path fill-rule="evenodd" clip-rule="evenodd" d="M169.2 0C169.461 20.461 153.236 63.0039 124.027 71.1689V90.2553L144.75 127.621L160.602 137.168C175.856 109.73 190.557 46.3079 169.2 0.00747023V0Z" fill="#FCA03B"/>
<path fill-rule="evenodd" clip-rule="evenodd" d="M118.828 71.169C88.4096 71.1317 28.3117 89.5756 0.5 131.984C17.3827 121.533 60.8669 114.885 82.2542 137.168L98.106 127.622L118.821 90.2554L118.836 71.169H118.828Z" fill="#6DBF55"/>
<path fill-rule="evenodd" clip-rule="evenodd" d="M111.709 116.714C111.709 111.142 116.057 106.622 121.42 106.622C126.784 106.622 131.132 111.142 131.132 116.714C131.132 122.287 126.784 126.837 121.42 126.837C116.057 126.837 111.709 122.317 111.709 116.714Z" fill="#4682BF"/>
</g>
<defs>
<clipPath id="clip0_894_3010">
<rect width="414" height="218.198" fill="white" transform="translate(0.5)"/>
</clipPath>
</defs>
</svg>
