<svg width="28" height="28" viewBox="0 0 28 28" fill="none" xmlns="http://www.w3.org/2000/svg">
<path fill-rule="evenodd" clip-rule="evenodd" d="M5.88351 5.59738C5.68721 4.38694 4.64199 3.49756 3.41573 3.49756H2.31933C1.49091 3.49756 0.819336 2.82598 0.819336 1.99756C0.819336 1.16913 1.49091 0.497559 2.31933 0.497559H3.41573C5.89953 0.497559 8.04575 2.15618 8.70757 4.49756H25.7677C26.8723 4.49756 27.7761 5.39536 27.6805 6.49576C27.4381 9.28256 26.7313 11.6545 26.0713 13.2742C25.5881 14.4598 24.5681 15.3068 23.3135 15.5627C22.0043 15.8298 20.0072 16.1003 17.289 16.1003C15.3429 16.1003 13.7032 15.9616 12.4037 15.7849C11.6736 15.6855 11.0165 15.4194 10.452 15.0279L10.7552 16.8977C10.9515 18.1082 11.9967 18.9976 13.2229 18.9976H24.3193C25.1477 18.9976 25.8193 19.6691 25.8193 20.4976C25.8193 21.326 25.1477 21.9976 24.3193 21.9976H13.2229C10.5252 21.9976 8.22569 20.041 7.79387 17.3779L5.88351 5.59738ZM11.0264 27.4858C12.2625 27.4858 13.2647 26.4838 13.2647 25.2476C13.2647 24.0114 12.2625 23.0092 11.0264 23.0092C9.79021 23.0092 8.78809 24.0114 8.78809 25.2476C8.78809 26.4838 9.79021 27.4858 11.0264 27.4858ZM26.5577 25.2476C26.5577 26.4838 25.5555 27.4858 24.3193 27.4858C23.0831 27.4858 22.0811 26.4838 22.0811 25.2476C22.0811 24.0114 23.0831 23.0092 24.3193 23.0092C25.5555 23.0092 26.5577 24.0114 26.5577 25.2476Z" fill="white"/>
</svg>
