<svg width="41" height="41" viewBox="0 0 41 41" fill="none" xmlns="http://www.w3.org/2000/svg">
<path fill-rule="evenodd" clip-rule="evenodd" d="M20.2109 0.5C9.16524 0.5 0.210938 9.45431 0.210938 20.5C0.210938 31.5457 9.16524 40.5 20.2109 40.5C31.2566 40.5 40.2109 31.5457 40.2109 20.5C40.2109 9.45431 31.2566 0.5 20.2109 0.5ZM18.9015 29.6592C19.1802 29.9727 19.5807 30.1294 20.1032 30.1294C20.643 30.1294 21.0523 29.9727 21.3309 29.6592C21.6096 29.3457 21.7489 28.9103 21.7489 28.3531V18.7661C21.7489 18.1914 21.6009 17.7561 21.3048 17.46C21.0262 17.1465 20.6256 16.9898 20.1032 16.9898C19.5807 16.9898 19.1802 17.1465 18.9015 17.46C18.6229 17.7561 18.4836 18.1914 18.4836 18.7661V28.3531C18.4836 28.9103 18.6229 29.3457 18.9015 29.6592ZM18.6664 14.1163C19.0147 14.4124 19.4937 14.5604 20.1032 14.5604C20.7301 14.5604 21.209 14.4124 21.5399 14.1163C21.8708 13.8029 22.0362 13.3762 22.0362 12.8363C22.0362 12.279 21.8708 11.8524 21.5399 11.5563C21.209 11.2603 20.7301 11.1122 20.1032 11.1122C19.4937 11.1122 19.0147 11.2603 18.6664 11.5563C18.3356 11.8524 18.1701 12.279 18.1701 12.8363C18.1701 13.3762 18.3356 13.8029 18.6664 14.1163Z" fill="#A5CAF9"/>
</svg>
