<svg width="50" height="49" viewBox="0 0 50 49" fill="none" xmlns="http://www.w3.org/2000/svg">
<path fill-rule="evenodd" clip-rule="evenodd" d="M0.999035 24.5C0.999035 -0.99983 -0.500961 0.50003 24.999 0.500025C50.499 0.500019 48.999 -1.00012 48.999 24.5C48.999 49.9999 50.499 48.4999 24.999 48.5C-0.500732 48.5002 0.999035 49.9999 0.999035 24.5ZM19.899 12.05H30.099C31.449 12.2 32.349 12.35 33.099 12.65C33.999 13.1 34.599 13.4 35.349 14.15C36.099 14.9 36.549 15.65 36.849 16.4C37.149 17.15 37.449 18.05 37.449 19.4V29.6C37.299 30.95 37.149 31.85 36.849 32.6C36.399 33.5 36.099 34.1 35.349 34.85C34.599 35.6 33.849 36.05 33.099 36.35C32.349 36.65 31.449 36.95 30.099 36.95H19.899C18.549 36.8 17.649 36.65 16.899 36.35C15.999 35.9 15.399 35.6 14.649 34.85C13.899 34.1 13.449 33.35 13.149 32.6C12.849 31.85 12.549 30.95 12.549 29.6V19.4C12.699 18.05 12.849 17.15 13.149 16.4C13.599 15.5 13.899 14.9 14.649 14.15C15.399 13.4 16.149 12.95 16.899 12.65C17.649 12.35 18.549 12.05 19.899 12.05Z" fill="white"/>
<path fill-rule="evenodd" clip-rule="evenodd" d="M24.999 18.05C21.399 18.05 18.549 20.9 18.549 24.5C18.549 28.1 21.399 30.95 24.999 30.95C28.599 30.95 31.449 28.1 31.449 24.5C31.449 20.9 28.599 18.05 24.999 18.05ZM20.799 24.5C20.799 26.9 22.749 28.7 24.999 28.7C27.249 28.7 29.199 26.75 29.199 24.5C29.199 22.1 27.249 20.3 24.999 20.3C22.599 20.3 20.799 22.25 20.799 24.5Z" fill="white"/>
<path d="M33.099 17.9C33.099 18.7284 32.4275 19.4 31.599 19.4C30.7706 19.4 30.099 18.7284 30.099 17.9C30.099 17.0716 30.7706 16.4 31.599 16.4C32.4275 16.4 33.099 17.0716 33.099 17.9Z" fill="white"/>
</svg>
