<svg width="50" height="49" viewBox="0 0 50 49" fill="none" xmlns="http://www.w3.org/2000/svg">
<path fill-rule="evenodd" clip-rule="evenodd" d="M1.00097 24.5C1.00122 -1.00012 -0.499283 0.500016 25.001 0.500012C50.5012 0.500008 49.001 -1.00012 49.001 24.5C49.001 50 50.5007 48.5 25.001 48.5C-0.498811 48.5 1.00104 50 1.00097 24.5ZM13.301 20.45V36.5H18.401V20.45H13.301ZM13.001 15.35C13.001 17 14.201 18.2 15.851 18.2C17.501 18.2 18.701 17 18.701 15.35C18.701 13.7 17.501 12.5 15.851 12.5C14.351 12.5 13.001 13.7 13.001 15.35ZM31.901 36.5H36.701V26.6C36.701 21.65 33.701 20 30.851 20C28.301 20 26.501 21.65 26.051 22.7V20.45H21.251V36.5H26.351V27.95C26.351 25.7 27.851 24.5 29.351 24.5C30.851 24.5 31.901 25.25 31.901 27.8V36.5Z" fill="white"/>
</svg>
