<svg width="40" height="40" viewBox="0 0 40 40" fill="none" xmlns="http://www.w3.org/2000/svg">
<path d="M9 15.6667C9 9.76895 13.769 5 19.6667 5C25.5644 5 30.3333 9.76895 30.3333 15.6667C30.3333 18.3831 29.0863 21.6571 27.3264 24.8866C25.5823 28.0872 23.4064 31.1166 21.6973 33.3104C20.6414 34.6658 18.6919 34.6658 17.636 33.3104C15.9269 31.1166 13.751 28.0872 12.0069 24.8866C10.2471 21.6571 9 18.3831 9 15.6667ZM14.5 15.6667C14.5 18.519 16.8144 20.8333 19.6667 20.8333C22.519 20.8333 24.8333 18.519 24.8333 15.6667C24.8333 12.8144 22.519 10.5 19.6667 10.5C16.8144 10.5 14.5 12.8144 14.5 15.6667Z" fill="#111A94" stroke="#111A94" stroke-width="2"/>
</svg>
