<svg width="14" height="12" viewBox="0 0 14 12" fill="none" xmlns="http://www.w3.org/2000/svg">
<path fill-rule="evenodd" clip-rule="evenodd" d="M2.33301 2.1849H11.6663C11.9238 2.1849 12.1472 2.33087 12.2583 2.54459L7.36948 5.80379C7.14555 5.95308 6.85382 5.95308 6.62988 5.80379L1.74107 2.54458C1.85213 2.33087 2.07552 2.1849 2.33301 2.1849ZM1.66634 4.09723V9.51823C1.66634 9.88642 1.96482 10.1849 2.33301 10.1849H11.6663C12.0345 10.1849 12.333 9.88642 12.333 9.51823V4.09724L8.10908 6.91319C7.43728 7.36105 6.56208 7.36105 5.89028 6.91319L1.66634 4.09723ZM0.333008 2.85156C0.333008 1.74699 1.22844 0.851562 2.33301 0.851562H11.6663C12.7709 0.851562 13.6663 1.74699 13.6663 2.85156V9.51823C13.6663 10.6228 12.7709 11.5182 11.6663 11.5182H2.33301C1.22844 11.5182 0.333008 10.6228 0.333008 9.51823V2.85156Z" fill="#0C0C12"/>
</svg>
