<svg width="180" height="32" viewBox="0 0 180 32" fill="none" xmlns="http://www.w3.org/2000/svg">
<g clip-path="url(#clip0_871_2169)">
<path d="M8.81315 18.5491C6.27886 17.5568 4.09089 16.7033 4.09089 14.7267C4.09089 12.4438 6.16477 11.6311 8.10828 11.6311C11.4656 11.6311 13.2502 13.4893 13.2665 13.5097L13.4376 13.6935L14.9411 11.1656L14.8474 11.0635C14.7618 10.9655 12.6798 8.68262 8.18976 8.68262C4.61649 8.68262 0.770235 10.5734 0.770235 14.7267C0.770235 18.6553 4.31091 20.0602 7.43192 21.2976C9.97029 22.3063 12.1623 23.1761 12.1623 25.1323C12.1623 27.3294 10.1251 28.3136 8.1042 28.3136C4.28646 28.3136 1.95997 25.8306 1.93552 25.8061L1.78069 25.6387L-0.00390625 28.0073L0.0979544 28.1216C0.126475 28.1543 0.806905 28.9221 2.13109 29.698C3.34935 30.4127 5.36619 31.2621 8.05938 31.2621C12.3579 31.2621 15.4789 28.6811 15.4789 25.1323C15.4789 21.1546 11.9342 19.7661 8.80908 18.5451" fill="#231F20"/>
<path d="M38.332 19.8682C38.332 24.6055 34.7954 28.3177 30.2809 28.3177C25.7664 28.3177 22.2298 24.6055 22.2298 19.8682C22.2298 15.131 25.7664 11.672 30.2809 11.672C34.7954 11.672 38.332 15.2739 38.332 19.8682ZM30.2809 8.68262C23.9044 8.68262 18.9092 13.5955 18.9092 19.8682C18.9092 26.141 23.9044 31.2662 30.2809 31.2662C36.6574 31.2662 41.6526 26.2594 41.6526 19.8682C41.6526 13.477 36.6574 8.68262 30.2809 8.68262Z" fill="#231F20"/>
<path d="M55.7175 0.690253C55.6972 0.690253 55.1879 0.604492 54.3852 0.604492C52.132 0.604492 46.8923 1.38859 46.8923 8.66189V9.48274H44.0117V12.2597H46.8923V30.7758H50.1234V12.2597H55.5383V9.48274H50.1234V8.66189C50.1234 6.75066 50.7141 3.54893 54.6786 3.54893C55.2368 3.54893 55.6442 3.62653 55.6483 3.63061L55.8764 3.67553V0.718839L55.7175 0.694336V0.690253Z" fill="#231F20"/>
<path d="M70.9806 28.1496L70.7483 28.2026C70.7483 28.2026 70.3735 28.2843 69.8031 28.2843C68.0674 28.2843 65.1541 27.5697 65.1541 22.7671V12.3247H70.5487V9.49054H65.1541V3.2627H61.8987V9.48645H59.0303V12.3206H61.8579V23.0652C61.8579 30.216 66.6739 31.2859 69.5464 31.2859C70.3287 31.2859 70.8054 31.2002 70.8217 31.1961L70.9806 31.1675V28.1496Z" fill="#231F20"/>
<path d="M77.5579 24.3473C77.5579 24.3473 79.9211 26.7159 83.4251 26.7159C84.9449 26.7159 86.2528 26.038 86.2528 24.772C86.2528 21.558 75.7896 21.9787 75.7896 15.0443C75.7896 11.0258 79.3751 8.70215 84.02 8.70215C88.6648 8.70215 91.2358 11.1565 91.2358 11.1565L89.2515 15.1342C89.2515 15.1342 87.2673 13.272 83.9752 13.272C82.5817 13.272 81.2331 13.8641 81.2331 15.2159C81.2331 18.2624 91.6962 17.8785 91.6962 24.8169C91.6962 28.4107 88.5752 31.2898 83.4699 31.2898C78.1121 31.2898 75.1133 28.1167 75.1133 28.1167L77.562 24.3514L77.5579 24.3473Z" fill="#231F20"/>
<path d="M110.269 17.3274C110.183 14.4074 108.37 12.8433 106.007 12.8433C103.265 12.8433 101.366 14.534 100.861 17.3274H110.269ZM106.133 8.69824C112.335 8.69824 115.672 13.2231 115.672 18.9323C115.672 19.5653 115.545 21.0028 115.545 21.0028H100.69C101.028 24.7681 103.941 26.712 107.148 26.712C110.607 26.712 113.349 24.3434 113.349 24.3434L115.419 28.1944C115.419 28.1944 112.127 31.2818 106.769 31.2818C99.6389 31.2818 95.21 26.1239 95.21 19.99C95.21 13.3497 99.7244 8.69824 106.138 8.69824" fill="#231F20"/>
<path d="M121.066 9.20925H126.212V12.9296C126.212 13.7341 126.126 14.4529 126.126 14.4529H126.212C127.181 11.3655 129.756 8.91113 133.048 8.91113C133.558 8.91113 134.018 8.99689 134.018 8.99689V14.2814C134.018 14.2814 133.468 14.1956 132.751 14.1956C130.473 14.1956 127.898 15.5065 126.884 18.7205C126.546 19.7782 126.419 20.9625 126.419 22.2326V30.776H121.062V9.20925H121.066Z" fill="#231F20"/>
<path d="M136.355 9.20996H142.011L146.484 22.5763C146.908 23.8464 147.202 25.2798 147.246 25.2798H147.328C147.373 25.2798 147.666 23.8464 148.09 22.5763L152.564 9.20996H158.219L150.498 30.7808H144.17L136.364 9.20996H136.355Z" fill="#231F20"/>
<path d="M174.596 17.3274C174.51 14.4074 172.697 12.8433 170.334 12.8433C167.592 12.8433 165.693 14.534 165.188 17.3274H174.596ZM170.46 8.69824C176.661 8.69824 179.994 13.2231 179.994 18.9323C179.994 19.5653 179.868 21.0028 179.868 21.0028H165.013C165.351 24.7681 168.26 26.712 171.471 26.712C174.93 26.712 177.672 24.3434 177.672 24.3434L179.738 28.1944C179.738 28.1944 176.446 31.2818 171.088 31.2818C163.957 31.2818 159.524 26.1239 159.524 19.99C159.524 13.3497 164.039 8.69824 170.452 8.69824" fill="#231F20"/>
</g>
<defs>
<clipPath id="clip0_871_2169">
<rect width="180" height="30.6818" fill="white" transform="translate(0 0.604492)"/>
</clipPath>
</defs>
</svg>
