<svg width="240" height="49" viewBox="0 0 240 49" fill="none" xmlns="http://www.w3.org/2000/svg">
<g clip-path="url(#clip0_871_2332)">
<path d="M14.6792 20.5567L24.0018 11.238L33.3282 20.5643L38.7497 15.1391L24.0018 0.387695L9.25391 15.1353L14.6792 20.5567Z" fill="#F3BA2F"/>
<path d="M-0.00195312 24.3887L5.42131 18.9655L10.8446 24.3887L5.42131 29.8119L-0.00195312 24.3887Z" fill="#F3BA2F"/>
<path d="M14.6799 28.2186L24.0025 37.5411L33.329 28.2148L38.7542 33.6324L38.7504 33.6362L24.0025 48.3877L9.25465 33.6438L9.24707 33.6362L14.6799 28.2186Z" fill="#F3BA2F"/>
<path d="M37.1504 24.3896L42.5737 18.9665L47.9969 24.3896L42.5737 29.8128L37.1504 24.3896Z" fill="#F3BA2F"/>
<path d="M29.5029 24.3856L24.0018 18.8809L19.9338 22.9488L19.4637 23.4151L18.5007 24.3781L18.4932 24.3856L18.5007 24.397L24.0018 29.8942L29.5029 24.3894L29.5067 24.3856H29.5029Z" fill="#F3BA2F"/>
<path d="M56.459 12.0195H68.2573C71.1841 12.0195 73.3982 12.7778 74.8995 14.2942C75.4652 14.8544 75.9111 15.5237 76.2102 16.2614C76.5093 16.9991 76.6555 17.7899 76.6397 18.5858V18.6579C76.6499 19.3099 76.5591 19.9595 76.3705 20.5838C76.2026 21.1212 75.9587 21.6318 75.6464 22.1003C75.3552 22.542 75.0029 22.9402 74.6 23.2831C74.2064 23.6219 73.7751 23.9145 73.3148 24.1551C74.6423 24.6174 75.8361 25.3985 76.7914 26.4298C77.6355 27.3902 78.0576 28.7171 78.0576 30.4105V30.4825C78.0816 31.5401 77.8515 32.588 77.3866 33.5382C76.9361 34.4137 76.2757 35.164 75.4644 35.7219C74.5472 36.3368 73.526 36.78 72.4504 37.0299C71.1725 37.3329 69.8625 37.4793 68.5492 37.4659H56.459V12.0195ZM67.0744 22.3088C68.0952 22.3581 69.111 22.1385 70.0202 21.6718C70.3748 21.4647 70.6643 21.1625 70.8559 20.7993C71.0475 20.4362 71.1337 20.0266 71.1045 19.617V19.545C71.1233 19.1676 71.0466 18.7916 70.8816 18.4516C70.7166 18.1117 70.4686 17.8189 70.1605 17.6001C69.5311 17.1528 68.6225 16.9291 67.4346 16.9291H61.9146V22.3088H67.0744ZM68.5644 32.5639C69.5814 32.6209 70.5936 32.3882 71.4836 31.8928C71.8303 31.6701 72.111 31.3584 72.2964 30.9904C72.4817 30.6223 72.565 30.2113 72.5376 29.8001V29.7281C72.5513 29.3372 72.4689 28.949 72.2977 28.5974C72.1265 28.2458 71.8717 27.9415 71.5557 27.7112C70.9036 27.2057 69.8496 26.9529 68.3938 26.9529H61.9146V32.5639H68.5644Z" fill="#F3BA2F"/>
<path d="M85.0869 12.0195H90.6866V37.4734H85.0869V12.0195Z" fill="#F3BA2F"/>
<path d="M99.1592 12.0195H104.323L116.258 27.6846V12.0195H121.785V37.4734H117.02L104.694 21.2927V37.4734H99.1592V12.0195Z" fill="#F3BA2F"/>
<path d="M138.74 11.8379H143.896L154.804 37.4738H148.958L146.63 31.7643H135.867L133.539 37.4738H127.829L138.74 11.8379ZM144.632 26.8206L141.242 18.5634L137.868 26.8206H144.632Z" fill="#F3BA2F"/>
<path d="M160.858 12.0195H166.022L177.949 27.6846V12.0195H183.477V37.4734H178.711L166.386 21.2927V37.4734H160.858V12.0195Z" fill="#F3BA2F"/>
<path d="M203.631 37.9207C201.846 37.936 200.077 37.5904 198.429 36.9047C196.878 36.2642 195.471 35.3197 194.29 34.1269C193.11 32.934 192.18 31.517 191.556 29.9593C190.897 28.3298 190.563 26.5873 190.574 24.8298V24.7578C190.544 21.2935 191.877 17.9564 194.285 15.4656C195.47 14.2489 196.889 13.2843 198.456 12.6298C200.16 11.9238 201.991 11.5716 203.835 11.5948C204.927 11.5867 206.016 11.6844 207.088 11.8867C208.006 12.0603 208.903 12.3283 209.765 12.6867C210.547 13.016 211.291 13.4305 211.983 13.9226C212.658 14.4026 213.292 14.9377 213.878 15.5225L210.318 19.6321C209.409 18.7929 208.388 18.0824 207.285 17.5204C206.202 17.0024 205.013 16.7429 203.813 16.7622C202.813 16.7515 201.823 16.9536 200.908 17.3549C199.993 17.7563 199.174 18.3477 198.505 19.09C197.842 19.8303 197.322 20.6879 196.973 21.6187C196.608 22.6023 196.424 23.6441 196.431 24.6933V24.7654C196.428 25.8131 196.611 26.853 196.973 27.8362C197.318 28.7703 197.832 29.6327 198.49 30.3801C199.153 31.1316 199.971 31.7317 200.887 32.1398C201.802 32.548 202.795 32.7546 203.798 32.7458C205.074 32.786 206.341 32.5112 207.486 31.9458C208.577 31.3516 209.585 30.6175 210.485 29.7621L214.049 33.3637C213.42 34.0467 212.739 34.6804 212.013 35.2593C211.3 35.8233 210.525 36.3053 209.704 36.6962C208.829 37.108 207.908 37.4123 206.959 37.6023C205.864 37.8219 204.748 37.9286 203.631 37.9207Z" fill="#F3BA2F"/>
<path d="M220.657 12.0195H239.814V17.0011H226.166V22.1647H238.184V27.1463H226.185V32.4918H240.004V37.4734H220.669L220.657 12.0195Z" fill="#F3BA2F"/>
</g>
<defs>
<clipPath id="clip0_871_2332">
<rect width="240" height="48" fill="white" transform="translate(0 0.387695)"/>
</clipPath>
</defs>
</svg>
