<svg width="180" height="39" viewBox="0 0 180 39" fill="none" xmlns="http://www.w3.org/2000/svg">
<path d="M105.698 31.0333C105.623 30.9536 105.555 30.869 105.491 30.7795C105.414 30.6696 105.375 30.6807 105.375 30.8131L105.377 33.4119C105.377 33.4353 105.367 33.4576 105.351 33.4741C105.334 33.4906 105.311 33.4999 105.288 33.4999H99.1522C99.1253 33.4999 99.0995 33.4895 99.0805 33.4709C99.0615 33.4524 99.0508 33.4273 99.0508 33.4011V0.463449C99.0508 0.451665 99.0532 0.439995 99.0578 0.429107C99.0624 0.418219 99.0692 0.408326 99.0777 0.399992C99.0863 0.391659 99.0964 0.385049 99.1076 0.38054C99.1188 0.37603 99.1308 0.373708 99.1429 0.373708C101.259 0.37673 103.362 0.375219 105.451 0.369175C105.596 0.368571 105.739 0.375823 105.882 0.390931C105.895 0.392399 105.907 0.398291 105.916 0.407574C105.925 0.416856 105.93 0.428936 105.931 0.441694C105.937 0.54201 105.94 0.704571 105.94 0.929377C105.943 5.40131 105.943 9.85542 105.94 14.2917C105.94 14.3878 105.971 14.3987 106.034 14.3243C106.819 13.3949 107.767 12.7277 108.88 12.3228C109.354 12.15 109.952 11.9926 110.674 11.8506C112.035 11.5829 113.354 11.5551 114.631 11.7672C116.45 12.0699 118.014 12.7969 119.323 13.9481C120.422 14.9157 121.294 16.1055 121.938 17.5178C122.48 18.7029 122.85 19.9907 123.047 21.3812C123.095 21.719 123.119 22.1091 123.121 22.5515C123.122 22.8125 123.123 23.0736 123.124 23.3347C123.125 23.6525 123.118 23.9136 123.103 24.1179C122.983 25.8329 122.507 27.4343 121.677 28.9222C120.862 30.3828 119.713 31.5585 118.23 32.4493C117.034 33.1672 115.753 33.6319 114.386 33.8434C113.755 33.9413 113.137 33.9957 112.534 34.0066C110.479 34.0422 108.595 33.4295 106.882 32.1683C106.475 31.8691 106.152 31.5721 105.912 31.2772C105.852 31.2041 105.781 31.1228 105.698 31.0333ZM106.821 25.9653C107.224 26.636 107.768 27.144 108.451 27.489C109.325 27.9302 110.248 28.1559 111.22 28.1662C111.879 28.1728 112.495 28.1097 113.067 27.9767C113.813 27.8039 114.464 27.4827 115.021 27.0131C116.12 26.0849 116.711 24.863 116.794 23.3474C116.824 22.7854 116.805 22.2587 116.736 21.7674C116.662 21.2404 116.509 20.74 116.277 20.2663C115.468 18.6116 114.051 17.694 112.028 17.5133C111.039 17.4251 110.109 17.5266 109.236 17.8179C107.893 18.2663 106.943 19.1422 106.387 20.4457C106.205 20.8736 106.077 21.38 106.004 21.965C105.843 23.2522 106.03 24.4514 106.567 25.5628C106.611 25.6522 106.653 25.7253 106.693 25.7822C106.777 25.9018 106.82 25.9628 106.821 25.9653Z" fill="#0C0C12"/>
<path d="M170.794 6.03528C170.302 6.49637 169.728 6.78221 169.072 6.8928C167.76 7.11398 166.675 6.75653 165.817 5.82044C165.367 5.32793 165.097 4.76772 165.008 4.13984C164.923 3.54459 165.001 2.9572 165.241 2.37766C165.605 1.49777 166.284 0.887113 167.277 0.545675C167.948 0.314826 168.614 0.285819 169.273 0.458653C169.874 0.616379 170.404 0.915213 170.863 1.35515C171.407 1.87668 171.729 2.5103 171.83 3.25603C171.9 3.78299 171.848 4.28004 171.672 4.74718C171.489 5.22821 171.197 5.65758 170.794 6.03528ZM166.579 5.19226C167.057 5.76998 167.636 6.07395 168.315 6.10417C168.853 6.12834 169.345 5.99328 169.792 5.69898C170.243 5.40226 170.568 4.98014 170.767 4.43263C170.939 3.96247 170.969 3.51286 170.858 3.0838C170.732 2.60156 170.487 2.19606 170.121 1.86731C169.809 1.58751 169.456 1.39957 169.062 1.30349C168.657 1.20498 168.241 1.21133 167.813 1.32252C167.158 1.49234 166.668 1.86459 166.342 2.4393C165.789 3.41466 165.868 4.33232 166.579 5.19226Z" fill="#0C0C12"/>
<path d="M24.7808 1.6505C26.421 1.78466 27.9436 2.10524 29.3488 2.61226C29.9472 2.82861 30.5094 3.08152 31.0352 3.37099C31.7508 3.76439 32.4258 4.22186 33.0602 4.74338C33.0785 4.75819 33.0906 4.77907 33.0942 4.80211C33.0978 4.82514 33.0926 4.84874 33.0797 4.86848C32.9973 4.99538 32.8983 5.11625 32.783 5.23107C32.6534 5.36099 32.5877 5.42686 32.5858 5.42868C31.1943 6.89837 29.8068 8.37139 28.4233 9.84773C28.4183 9.85257 28.3948 9.88067 28.3526 9.93204C28.2422 10.068 28.1176 10.0532 27.9787 9.88762C27.7542 9.62112 27.4073 9.34736 26.9378 9.06636C26.4132 8.75211 25.7795 8.49649 25.0366 8.29948C23.8205 7.97678 22.6094 7.94535 21.4033 8.20521C20.8626 8.32184 20.3516 8.51462 19.8704 8.78354C19.3142 9.09355 18.9095 9.43861 18.6565 9.81873C18.2938 10.362 18.1822 10.9971 18.3217 11.7241C18.4463 12.3762 18.7855 12.8935 19.3393 13.276C20.0983 13.7994 21.0362 14.2305 22.153 14.5696C23.3554 14.934 24.5625 15.2832 25.7742 15.6174C26.2287 15.7425 26.674 15.8906 27.1099 16.0616C27.5868 16.2483 28.0168 16.4336 28.4 16.6173C29.3705 17.0826 30.2474 17.6854 31.0306 18.4257C31.1583 18.5466 31.3518 18.7665 31.611 19.0856C31.8336 19.3594 32.0051 19.5956 32.1254 19.7945C32.5489 20.4949 32.8255 21.2793 32.9551 22.1477C33.0159 22.5562 33.0549 22.8997 33.0723 23.1783C33.0729 23.1916 33.0878 23.3726 33.1169 23.7213C33.1349 23.9364 33.1306 24.1513 33.1039 24.3658C33.0865 24.5066 33.0717 24.6834 33.0593 24.8961C33.0512 25.0357 33.0338 25.2131 33.0072 25.4282C32.6549 28.2461 31.3062 30.4368 28.9609 32.0001C27.5396 32.9477 25.9227 33.5828 24.1101 33.9055C21.5887 34.3545 19.0745 34.3074 16.5674 33.7641C14.0373 33.2166 11.7913 32.0702 9.82925 30.325C9.82016 30.3169 9.81279 30.3072 9.80759 30.2963C9.80238 30.2855 9.79943 30.2737 9.79891 30.2617C9.79839 30.2498 9.80031 30.2378 9.80456 30.2266C9.80881 30.2153 9.81531 30.205 9.82367 30.1962L14.854 24.9097C14.8581 24.9055 14.863 24.9021 14.8685 24.8999C14.874 24.8977 14.8799 24.8967 14.8858 24.897C14.8918 24.8973 14.8976 24.8988 14.9028 24.9014C14.9081 24.9041 14.9127 24.9078 14.9163 24.9124C16.1628 26.4619 17.7751 27.3955 19.7532 27.7134C20.1383 27.7757 20.6437 27.8165 21.2694 27.8358C21.3996 27.84 21.5131 27.8355 21.6098 27.8222C21.8138 27.7938 21.9255 27.7787 21.9447 27.7769C22.2417 27.7575 22.571 27.7056 22.9325 27.621C23.5477 27.4765 24.1017 27.2433 24.5947 26.9212C25.0834 26.6015 25.4375 26.2443 25.657 25.8497C25.91 25.3953 26.0092 24.8849 25.9546 24.3187C25.8901 23.6491 25.5996 23.0955 25.0831 22.658C24.6676 22.3057 24.1076 21.96 23.4032 21.621C22.7849 21.3237 21.9769 21.0233 20.9792 20.72C20.3051 20.5151 19.6326 20.3057 18.9616 20.0918C17.8361 19.7334 17.247 19.5452 17.1943 19.5271C15.8195 19.0424 14.5889 18.3789 13.5025 17.5364C12.9903 17.1388 12.497 16.6082 12.0226 15.9447C11.4744 15.1778 11.1346 14.3296 11.0031 13.4002C10.8326 12.2012 10.8189 11.1268 10.9622 10.1768C11.0868 9.35069 11.2881 8.59559 11.5659 7.91151C11.7804 7.38394 12.0768 6.85517 12.4551 6.32518C13.5905 4.73462 15.0773 3.56346 16.9153 2.81169C19.3666 1.80913 21.9884 1.42207 24.7808 1.6505Z" fill="#0C0C12"/>
<path d="M169.531 3.85894C169.453 3.90789 169.412 3.92542 169.278 3.96046C169.123 4.00589 169.106 4.02875 169.185 4.1472L169.929 5.26306C169.983 5.34404 169.96 5.38453 169.86 5.38453H169.03C169.016 5.38454 169.002 5.38088 168.989 5.37389C168.977 5.3669 168.966 5.35683 168.959 5.34465L168.159 4.10187C168.096 4.00518 168.065 4.01666 168.066 4.13632L168.069 5.26397C168.069 5.27977 168.066 5.29543 168.061 5.31005C168.055 5.32468 168.046 5.33798 168.036 5.34918C168.025 5.36039 168.012 5.36928 167.998 5.37535C167.984 5.38142 167.968 5.38454 167.953 5.38453L167.139 5.38635C167.116 5.38634 167.093 5.37712 167.077 5.36069C167.06 5.34425 167.05 5.32189 167.05 5.29842C167.043 4.89655 167.043 4.5125 167.051 4.14629C167.051 4.14025 167.053 1.9209 167.053 1.9209L168.676 1.9209C169.011 1.92755 169.314 2.02575 169.583 2.2155C169.8 2.36839 169.913 2.5787 169.923 2.84641C169.93 3.03495 169.924 3.18845 169.905 3.3069C169.88 3.47308 169.821 3.6003 169.701 3.72425C169.696 3.72848 169.618 3.80472 169.531 3.85894ZM168.068 2.68052L168.078 3.24888C168.078 3.2651 168.085 3.2807 168.097 3.29274C168.109 3.30477 168.125 3.31239 168.143 3.31415C168.374 3.33832 168.56 3.3211 168.701 3.26248C168.853 3.19902 168.923 3.10234 168.911 2.97241C168.902 2.87451 168.846 2.79202 168.741 2.72494C168.554 2.60468 168.348 2.56872 168.123 2.61707C168.107 2.62044 168.093 2.62861 168.083 2.64018C168.073 2.65176 168.068 2.66602 168.068 2.68052Z" fill="#0C0C12"/>
<path d="M37.809 30.7884C36.3883 29.3483 35.4476 27.6523 34.9869 25.7003C34.7252 24.5902 34.6207 23.465 34.6734 22.3246C34.7441 20.777 35.1159 19.3163 35.7887 17.9427C36.051 17.4067 36.3688 16.8894 36.7421 16.3908C38.5584 13.9657 41.0494 12.4688 44.2151 11.9002C45.5446 11.6615 46.8239 11.5826 48.0529 11.6636C50.0634 11.7971 51.906 12.3084 53.5809 13.1973C54.2748 13.566 54.9483 14.0307 55.6013 14.5915C56.0787 15.0018 56.5088 15.4363 56.8914 15.895C58.2588 17.5345 59.0615 19.4157 59.2996 21.5387C59.3368 21.8662 59.3551 22.2847 59.3545 22.7942C59.3545 23.0734 59.3536 23.3529 59.3517 23.6327C59.3492 23.9493 59.3337 24.2285 59.3052 24.4702C59.1843 25.4855 58.9505 26.4037 58.6038 27.225C57.4957 29.8502 55.6372 31.7746 53.0284 32.9983C52.0325 33.4655 50.9703 33.8036 49.8417 34.0127C47.0437 34.5306 44.331 34.2982 41.7036 33.3156C40.2234 32.7621 38.9252 31.9196 37.809 30.7884ZM43.6514 18.4893C43.2812 18.7582 42.9597 19.0589 42.6868 19.3913C42.4319 19.7019 42.2149 20.0757 42.0357 20.5126C41.4416 21.9605 41.3871 23.4465 41.872 24.9706C42.2844 26.2651 43.08 27.2069 44.2588 27.7961C44.6767 28.0046 45.1415 28.1548 45.6531 28.2466C46.1176 28.3306 46.609 28.3753 47.1274 28.3808C47.2682 28.3826 47.3897 28.3768 47.4921 28.3635C47.7091 28.3345 47.8201 28.3197 47.8251 28.3191C48.8625 28.2394 49.7672 27.891 50.5393 27.274C50.9436 26.9506 51.2856 26.5714 51.5653 26.1363C51.8443 25.7024 52.0536 25.2326 52.1931 24.7268C52.4846 23.6692 52.5147 22.6041 52.2833 21.5315C52.08 20.5851 51.6549 19.7711 51.0081 19.0894C50.6515 18.7135 50.2534 18.4083 49.8138 18.1739C49.3636 17.934 48.8792 17.766 48.3608 17.6699C47.1708 17.4487 46.001 17.517 44.8513 17.8747C44.4383 18.0029 44.0383 18.2077 43.6514 18.4893Z" fill="#0C0C12"/>
<path d="M73.7188 17.9333C73.3406 17.6535 72.8928 17.5006 72.3757 17.4746C71.9695 17.4547 71.5674 17.474 71.1692 17.5326C70.7469 17.5955 70.3677 17.716 70.0316 17.8943C69.2794 18.2932 68.7412 18.8772 68.4169 19.6465C68.2854 19.959 68.1784 20.3765 68.096 20.8993C68.0222 21.3688 67.9837 21.7985 67.9806 22.1883C67.9794 22.3098 67.9738 22.4113 67.9639 22.4929C67.944 22.656 67.9338 22.756 67.9332 22.7929C67.9183 26.3142 67.9168 29.8483 67.9285 33.395C67.9285 33.4219 67.9176 33.4478 67.898 33.4668C67.8785 33.4858 67.852 33.4965 67.8244 33.4965H61.1588C61.1255 33.4965 61.0935 33.4836 61.07 33.4607C61.0464 33.4377 61.0332 33.4066 61.0332 33.3742V12.2706C61.0332 12.2338 61.0481 12.1985 61.0746 12.1725C61.1011 12.1465 61.1371 12.1319 61.1746 12.1319H67.4979C67.5178 12.1319 67.5375 12.1357 67.5559 12.1433C67.5743 12.1508 67.591 12.1618 67.6051 12.1757C67.6192 12.1896 67.6303 12.2061 67.6379 12.2242C67.6456 12.2423 67.6495 12.2618 67.6495 12.2814V14.9573C67.6489 15.0438 67.6709 15.0495 67.7155 14.9746C68.2556 14.0669 68.9812 13.3456 69.8921 12.8108C71.5001 11.8657 73.2813 11.494 75.2359 11.6959C76.4526 11.8216 77.553 12.1551 78.5371 12.6966C79.0834 12.9976 79.5547 13.3613 79.951 13.788C80.3714 14.2406 80.71 14.7356 80.9667 15.2728C81.0132 15.3701 81.0641 15.3722 81.1192 15.2791C81.5025 14.6368 81.9434 14.0717 82.4419 13.584C82.8909 13.1441 83.3898 12.79 83.9386 12.5217C84.5227 12.2364 85.1642 12.0216 85.8631 11.8772C86.8813 11.6668 87.9569 11.6122 89.0898 11.7131C89.9772 11.7916 90.7887 11.9772 91.5241 12.2697C92.6167 12.7048 93.4951 13.3689 94.1593 14.2621C94.7577 15.0676 95.189 15.9853 95.4531 17.015C95.6416 17.7499 95.7731 18.4929 95.8475 19.2441C95.8884 19.6592 95.9089 20.2629 95.9089 21.0552C95.9089 25.1657 95.9089 29.2829 95.9089 33.4068C95.9089 33.4186 95.9065 33.4303 95.9019 33.4411C95.8973 33.452 95.8905 33.4619 95.8819 33.4703C95.8734 33.4786 95.8632 33.4852 95.8521 33.4897C95.8409 33.4942 95.8289 33.4965 95.8168 33.4965H89.1271C89.1002 33.4965 89.0744 33.4861 89.0554 33.4676C89.0364 33.4491 89.0257 33.4239 89.0257 33.3977C89.0257 29.2558 89.0257 25.1038 89.0257 20.9419C89.0257 20.2578 88.8756 19.6021 88.5755 18.9748C88.3411 18.4853 88.049 18.1258 87.6993 17.8961C87.2993 17.6333 86.8268 17.4928 86.2817 17.4746C85.6647 17.4541 85.1056 17.5157 84.6046 17.6595C83.6521 17.9333 82.9498 18.4998 82.4978 19.3592C82.2733 19.787 82.1238 20.2617 82.0494 20.7832C81.9787 21.2812 81.9424 21.7193 81.9406 22.0976C81.9226 25.8462 81.9183 29.5951 81.9276 33.3442C81.9276 33.3666 81.9185 33.388 81.9025 33.4039C81.8864 33.4197 81.8647 33.4286 81.842 33.4286L75.1569 33.424C75.1268 33.424 75.0979 33.4122 75.0766 33.3911C75.0553 33.37 75.0434 33.3414 75.0434 33.3116C75.0502 29.3811 75.0524 25.5555 75.0499 21.8348C75.0499 21.6752 75.0366 21.4891 75.0099 21.2764C74.987 21.0902 74.9705 20.9035 74.9606 20.7162C74.929 20.0907 74.8096 19.5408 74.6025 19.0664C74.396 18.5944 74.1014 18.2167 73.7188 17.9333Z" fill="#0C0C12"/>
<path d="M131.75 15.3816C131.75 15.5255 131.786 15.5336 131.856 15.4061C132.157 14.8616 132.511 14.3531 132.919 13.8805C134.062 12.554 135.526 11.8186 137.31 11.6742C138.344 11.5902 139.371 11.6439 140.393 11.8355C140.407 11.8382 140.42 11.8457 140.429 11.8566C140.439 11.8675 140.444 11.8812 140.444 11.8953L140.466 17.8119C140.466 17.822 140.464 17.832 140.459 17.841C140.455 17.8501 140.448 17.8581 140.44 17.8643C140.431 17.8705 140.422 17.8748 140.412 17.8769C140.401 17.8789 140.391 17.8787 140.38 17.8762C139.557 17.6762 138.749 17.5418 137.955 17.4729C137.254 17.4118 136.524 17.4532 135.766 17.597C135.076 17.7276 134.496 17.9318 134.028 18.2098C132.99 18.8268 132.33 19.7596 132.051 21.0081C131.961 21.4106 131.895 21.8158 131.854 22.2237C131.826 22.5005 131.797 22.9099 131.769 23.452C131.739 24.0279 131.725 24.6881 131.729 25.4326C131.742 28.1049 131.74 30.7657 131.723 33.415C131.723 33.4362 131.715 33.4564 131.699 33.4714C131.684 33.4864 131.663 33.4948 131.642 33.4948L124.945 33.4893C124.932 33.4893 124.919 33.4868 124.907 33.482C124.895 33.4771 124.884 33.4699 124.875 33.4609C124.866 33.4519 124.858 33.4412 124.853 33.4295C124.848 33.4177 124.846 33.4051 124.846 33.3923V12.2198C124.846 12.2006 124.853 12.1822 124.867 12.1686C124.881 12.155 124.9 12.1473 124.919 12.1473L131.573 12.1256C131.688 12.125 131.746 12.1827 131.747 12.2987L131.75 15.3816Z" fill="#0C0C12"/>
<path d="M144.181 31.2361C143.519 30.6106 142.937 29.8854 142.437 29.0605C141.785 27.9873 141.336 26.7702 141.088 25.4093C141.034 25.1132 140.992 24.7472 140.961 24.3115C140.935 23.9441 140.909 23.5764 140.884 23.2084C140.871 23.0089 140.87 22.8615 140.879 22.766C140.888 22.6699 140.893 22.6207 140.893 22.6182C140.949 21.0567 141.277 19.5293 141.879 18.036C142.299 16.993 142.85 16.0448 143.534 15.1915C143.923 14.7044 144.348 14.266 144.808 13.8762C146.499 12.4428 148.511 11.7001 150.844 11.6481C151.888 11.6251 153.002 11.7545 154.186 12.0361C155.142 12.2639 155.95 12.602 156.61 13.0504C157.161 13.4245 157.641 13.8705 158.053 14.3884C158.091 14.4361 158.11 14.4295 158.109 14.3684L158.099 12.1757C158.099 12.1633 158.102 12.151 158.107 12.1396C158.112 12.1282 158.119 12.1178 158.128 12.109C158.137 12.1003 158.148 12.0933 158.16 12.0886C158.172 12.0838 158.185 12.0814 158.198 12.0814H164.877C164.905 12.0814 164.931 12.0921 164.951 12.1111C164.97 12.1302 164.981 12.156 164.981 12.1829V33.4152C164.981 33.4369 164.973 33.4576 164.957 33.4729C164.941 33.4882 164.92 33.4968 164.898 33.4968H158.73C158.696 33.4968 158.664 33.4839 158.641 33.461C158.617 33.438 158.604 33.4069 158.604 33.3745V30.8445C158.604 30.6994 158.564 30.6877 158.483 30.8091C158.193 31.2454 157.835 31.6343 157.409 31.9758C157.066 32.2501 156.628 32.5417 156.095 32.8505C154.902 33.5412 153.622 33.9229 152.256 33.9954C150.958 34.0643 149.658 33.9205 148.357 33.5639C147.727 33.3905 147.149 33.1756 146.622 32.9194C145.715 32.4776 144.901 31.9165 144.181 31.2361ZM148.227 26.1372C148.881 27.031 149.719 27.6223 150.743 27.9111C151.274 28.061 151.868 28.1438 152.525 28.1595C153.136 28.174 153.738 28.1075 154.331 27.9601C154.968 27.8024 155.529 27.5534 156.012 27.2132C157.044 26.4862 157.691 25.4609 157.953 24.1375C158.15 23.1434 158.133 22.1777 157.903 21.2404C157.752 20.6246 157.507 20.0744 157.166 19.5897C156.491 18.6276 155.57 17.9983 154.403 17.7015C153.834 17.5577 153.22 17.484 152.56 17.4804C151.723 17.4755 150.941 17.619 150.215 17.9109C149.355 18.2566 148.667 18.8077 148.15 19.5643C147.823 20.0417 147.576 20.5929 147.409 21.2177C147.183 22.0577 147.134 22.9186 147.263 23.8003C147.386 24.6481 147.708 25.4271 148.227 26.1372Z" fill="#0C0C12"/>
</svg>
