<svg width="80" height="34" viewBox="0 0 80 34" fill="none" xmlns="http://www.w3.org/2000/svg">
<path d="M2.66785 8.67942V3.52051H9.65549C9.65549 8.6782 9.65549 8.67819 9.65549 8.67819L15.2129 8.68064V14.9715H9.66732V26.641H15.6057V32.9196H2.66785V14.9702H0V8.67819L2.66785 8.67942Z" fill="#0C0C12"/>
<path d="M67.0624 8.67942V3.52051H74.05C74.05 8.6782 74.05 8.67819 74.05 8.67819L79.6074 8.68064V14.9715H74.0619V26.641H80.0002V32.9196H67.0624V14.9702H64.3945V8.67819L67.0624 8.67942Z" fill="#0C0C12"/>
<path d="M31.4578 16.1377H38.241C38.241 16.1377 37.7718 13.0704 35.3138 10.7883C32.8558 8.50615 30.0405 7.84801 27.2704 7.94935C24.5003 8.0507 21.1954 8.72105 19.2496 12.2841C17.3674 15.7298 19.0312 18.9033 19.8265 19.8093C20.851 20.9754 22.0864 22.3479 26.332 23.4126C30.5775 24.4774 30.8229 24.9585 31.0467 25.2637C31.2706 25.5678 31.2921 26.0648 31.1952 26.3407C31.0984 26.6167 30.896 27.0025 30.3128 27.2504C29.7295 27.4983 28.734 27.5715 28.2153 27.5532C27.6966 27.5349 27.1305 27.5251 26.4181 27.2138C25.7056 26.9012 24.7016 26.0928 24.467 24.9902H17.4707C17.4707 24.9902 17.8517 27.8011 19.8189 30.0148C21.7862 32.2286 23.9246 33.0735 25.908 33.4228C27.8914 33.772 30.7658 33.6255 32.3209 33.1468C33.876 32.6694 35.8271 31.9429 37.3973 29.4812C38.9685 27.0196 38.3766 24.1074 38.086 23.271C37.7944 22.4346 37.0658 20.68 34.9123 19.4858C32.7589 18.2916 28.8481 17.3917 28.6371 17.3355C28.4262 17.2806 26.7506 16.8764 26.2319 16.4625C25.7132 16.0485 25.6766 15.6493 25.7089 15.1718C25.7411 14.6944 26.1318 14.2231 26.6118 14.0375C27.1552 13.8275 27.8268 13.7066 28.6684 13.8079C29.511 13.9105 30.8734 14.2414 31.4578 16.1377Z" fill="#0C0C12"/>
<path d="M41 0.275391H47.9962V17.298H50.2648L54.9817 8.67129H62.3708L56.2086 20.099L62.9993 32.9078H55.4057L50.6576 24.0516H48.0016V32.9078H41V0.275391Z" fill="#0C0C12"/>
</svg>
