<svg width="156" height="40" viewBox="0 0 156 40" fill="none" xmlns="http://www.w3.org/2000/svg">
<g clip-path="url(#clip0_871_2196)">
<path d="M149.621 5.71094L145.897 17.8855L145.117 20.8884C144.931 20.1319 144.523 18.6072 144.337 17.8855L140.938 5.71094H134.223L142.161 27.4413L137.691 39.7439H143.918L156.011 5.71094H149.633H149.621Z" fill="#00E171"/>
<path d="M3.10766 5.69935L4.91174 0.147461H9.12512V5.69935L13.8739 5.67607V10.2154H9.12512V20.2483C9.12512 23.0301 10.0097 24.1824 11.872 24.1707C12.7449 24.1707 13.548 24.0776 14.1765 23.9612V28.6402C13.3618 28.9777 11.6392 29.1872 9.85839 29.1989C3.22405 29.2221 3.16586 23.4608 3.15422 20.8885L3.1193 10.2386H0.0116392L0 7.66638L3.10766 5.69935ZM21.4161 19.0961C21.579 23.0301 23.3948 24.8691 26.7236 24.8691C29.7148 24.8691 32.0194 24.2289 33.9864 23.3211V27.8836C32.0776 28.71 29.6217 29.2105 26.7585 29.2105C19.4258 29.2105 15.5732 25.0437 15.5732 17.5597C15.5732 10.9253 19.3909 5.21051 26.1416 5.21051C31.7401 5.21051 35.3831 9.19111 35.3831 16.6518C35.3831 17.5597 35.3366 18.4326 35.2202 19.0961H21.4161ZM29.7148 14.8245C29.7614 12.4152 28.807 9.48209 25.7808 9.48209C22.7546 9.48209 21.5907 12.5432 21.4277 14.8245H29.7148ZM38.5839 7.17753C40.7953 6.10672 43.0068 5.24543 46.9408 5.24543C54.1106 5.24543 56.0543 9.80799 56.0543 14.8594V28.7799H51.5616L50.4908 26.3706H50.3628C49.0359 28.1979 46.8012 29.2338 44.2289 29.2338C39.9573 29.2338 37.3036 26.0447 37.3036 22.3085C37.3036 16.3841 42.5645 13.6024 49.8972 13.6024C49.8972 11.3211 49.4898 9.58684 46.4753 9.58684C44.3569 9.58684 42.4947 10.0524 40.4578 11.0534L38.549 7.15425L38.5839 7.17753ZM50.0951 17.5597C46.7779 17.5597 43.3443 18.3512 43.3443 21.7032C43.3443 23.903 44.7177 24.8575 46.2425 24.8575C47.6974 24.8575 50.0951 23.8216 50.0951 20.8769V17.5597ZM78.0989 9.10964C80.0078 6.29295 82.3705 5.25706 84.9428 5.25706C88.9583 5.25706 92.0659 8.1203 92.0659 14.7896V28.8031H86.0601V15.744C86.0601 12.4268 85.1523 10.227 82.708 10.227C81.0087 10.227 79.0999 11.5539 79.0999 14.7896V28.8031H73.0941V15.1737C73.0941 12.4384 72.2211 10.2386 69.8235 10.2386C68.1242 10.2386 66.1339 11.8099 66.1339 14.9176V28.8031H60.128V5.74591H64.9001L65.4821 8.80702H65.6101C66.6925 7.15425 68.7178 5.24543 72.1629 5.24543C74.9796 5.24543 77.1329 6.73524 78.0524 9.098H78.1338L78.0989 9.10964ZM108.675 5.71099H115.018L107.139 28.7915H101.214L93.4627 5.71099H100.05L103.077 16.8963C103.577 18.8866 103.984 20.7954 104.357 22.7857H104.485C104.857 20.7954 105.276 18.9331 105.765 16.8963L108.663 5.71099H108.675ZM136.016 22.4714L129.917 5.71099C128.962 5.39673 127.659 5.21051 126.378 5.21051C120.116 5.21051 115.437 9.59848 115.437 17.3502C115.437 25.1019 119.919 29.2454 126.134 29.2454C130.045 29.2454 134.235 27.2784 136.027 22.4598L136.016 22.4714ZM126.204 24.7294C123.224 24.7294 121.641 21.3308 121.641 17.2338C121.641 13.7071 122.84 9.73815 126.239 9.73815C129.393 9.73815 130.673 13.5907 130.673 17.1989C130.673 21.3075 129.102 24.7411 126.192 24.7411L126.204 24.7294Z" fill="#212121"/>
</g>
<defs>
<clipPath id="clip0_871_2196">
<rect width="156" height="39.5965" fill="white" transform="translate(0 0.147461)"/>
</clipPath>
</defs>
</svg>
