<svg width="200" height="71" viewBox="0 0 200 71" fill="none" xmlns="http://www.w3.org/2000/svg">
<rect y="0.780273" width="200" height="69.8795" rx="20" fill="#0C0C12"/>
<g clip-path="url(#clip0_871_2201)">
<path d="M22.8916 50.7082V49.2296C23.8548 43.8841 26.9781 38.8791 30.3641 34.7448C30.436 34.657 30.4753 34.547 30.4753 34.4335C30.4753 34.32 30.436 34.21 30.3641 34.1222C26.9781 29.9976 23.8305 24.944 22.8916 19.5791V18.115C24.4484 8.37258 39.6365 18.8154 42.9155 21.6025C42.9982 21.673 43.1035 21.7118 43.2122 21.7118C43.321 21.7118 43.4262 21.673 43.509 21.6025C47.0944 18.5917 53.1123 14.5741 57.9042 14.1752C64.6469 13.6159 64.1507 19.7201 62.2972 24.0344C60.7112 27.7213 58.6355 31.0741 56.0701 34.093C55.9946 34.1818 55.9527 34.2942 55.9519 34.4107C55.951 34.5272 55.9911 34.6403 56.0653 34.7302C58.7458 37.9647 67.595 50.5671 61.4701 54.0886C56.6199 56.8805 46.9922 50.1002 43.4166 47.2305C43.3604 47.1848 43.2904 47.1595 43.2179 47.1586C43.1455 47.1577 43.0749 47.1813 43.0176 47.2256C39.3933 50.0662 35.5062 52.6538 31.2738 54.1032C27.8051 55.2949 23.6165 55.2316 22.8916 50.7082ZM41.2079 23.2319C39.4711 21.8116 24.0689 10.8629 25.3046 19.8466C25.8689 23.9517 29.3862 29.1659 31.95 32.308C32.0733 32.4571 32.1965 32.4587 32.3197 32.3128C35.0506 29.1253 38.0149 26.1713 41.2128 23.4507C41.2287 23.4372 41.2415 23.4202 41.2501 23.4011C41.2587 23.3819 41.2629 23.3611 41.2624 23.3402C41.262 23.3192 41.2568 23.2986 41.2474 23.2799C41.238 23.2611 41.2245 23.2447 41.2079 23.2319ZM58.1572 16.4661C53.5209 17.2638 48.8798 20.2989 45.2652 23.2027C45.2455 23.2183 45.2296 23.2381 45.2184 23.2606C45.2073 23.2831 45.2013 23.3078 45.2008 23.3329C45.2004 23.358 45.2055 23.3829 45.2158 23.4058C45.226 23.4287 45.2413 23.449 45.2603 23.4653C48.4874 26.2118 51.4712 29.1999 54.2117 32.4296C54.2766 32.5041 54.3382 32.5041 54.3966 32.4296C56.9004 29.401 58.9063 26.0708 60.4145 22.4391C61.3534 20.1725 62.2437 15.7657 58.1572 16.4661ZM51.5944 32.9549C49.2836 30.3429 46.3939 27.3954 43.4263 24.9829C43.2933 24.8759 43.162 24.8759 43.0322 24.9829C40.0874 27.444 37.3549 30.1192 34.8349 33.0084C34.7117 33.1478 34.7441 33.2175 34.9322 33.2175H51.4777C51.7112 33.2175 51.7501 33.13 51.5944 32.9549ZM34.7279 35.7224C37.1944 38.597 40.0111 41.2624 43.0274 43.889C43.0811 43.9378 43.1508 43.9653 43.2235 43.9662C43.2961 43.9671 43.3665 43.9414 43.4214 43.8938C46.3695 41.3743 49.1344 38.6667 51.716 35.7711C51.8588 35.6089 51.8215 35.5279 51.6042 35.5279H34.8203C34.6484 35.5279 34.6176 35.5927 34.7279 35.7224ZM61.2123 49.6284C60.6334 44.9979 57.3009 40.0756 54.455 36.4569C54.3739 36.3531 54.2896 36.3515 54.202 36.452C51.4647 39.6622 48.4923 42.6373 45.2847 45.3773C45.2662 45.3929 45.2514 45.4122 45.2413 45.4341C45.2311 45.4559 45.2258 45.4797 45.2258 45.5038C45.2258 45.5279 45.2311 45.5517 45.2413 45.5735C45.2514 45.5954 45.2662 45.6147 45.2847 45.6303C48.3722 48.2114 51.8069 50.2542 55.5885 51.7588C57.7582 52.6197 61.6647 53.252 61.2123 49.6284ZM41.2176 45.4016C37.9906 42.6779 35.0133 39.7044 32.2857 36.4812C32.2671 36.46 32.2441 36.4431 32.2182 36.4316C32.1924 36.4202 32.1644 36.4145 32.1362 36.4149C32.108 36.4154 32.0802 36.422 32.0547 36.4343C32.0293 36.4466 32.0069 36.4642 31.9889 36.4861C29.5208 39.5309 27.5359 42.8821 26.0343 46.5398C25.1635 48.6702 24.1808 52.6538 27.8781 52.3814C32.3976 52.0458 37.7782 48.4076 41.2176 45.6205C41.2335 45.6076 41.2463 45.5913 41.255 45.5727C41.2638 45.5541 41.2683 45.5336 41.2683 45.5128C41.2683 45.492 41.2638 45.4712 41.255 45.4521C41.2463 45.4329 41.2335 45.4157 41.2176 45.4016Z" fill="#F0EFF0"/>
<path d="M80.8129 20.2888C82.5497 20.6341 84.3156 21.3637 84.52 23.2461C84.9919 27.575 77.7675 27.215 77.7237 23.5379C77.7205 23.3433 77.8161 23.2461 78.0107 23.2461H78.8524C79.0632 23.2461 79.1864 23.3482 79.2221 23.5525C79.6502 25.9261 83.9216 25.2743 82.9 23.1634C81.9124 21.1108 78.0156 22.5262 78.001 18.9853C77.9864 15.0309 84.3545 15.3519 84.5637 18.9609C84.5735 19.1328 84.494 19.2204 84.3254 19.2236L83.3475 19.2382C83.1854 19.2414 83.0929 19.1636 83.0702 19.0047C82.9113 17.8568 82.1475 17.3672 80.7789 17.5358C78.8572 17.7742 79.2416 19.9775 80.8129 20.2888Z" fill="#F0EFF0"/>
<path d="M126.727 23.8641C127.073 21.6316 122.266 22.3952 121.707 19.506C120.928 15.469 127.34 14.8318 128.274 18.83C128.336 19.0926 128.231 19.2256 127.958 19.2288L127.126 19.2385C126.909 19.2418 126.779 19.1364 126.737 18.9224C126.275 16.6947 122.587 17.2151 123.254 19.2434C123.847 21.0431 127.506 20.0849 128.114 22.8184C129.179 27.6094 121.459 27.3662 121.396 23.4847C121.396 23.3291 121.473 23.2513 121.629 23.2513L122.602 23.2464C122.764 23.2464 122.855 23.3275 122.874 23.4896C123.103 25.406 126.45 25.6492 126.727 23.8641Z" fill="#F0EFF0"/>
<path d="M139.77 20.571V26.1645C139.77 26.2456 139.729 26.2861 139.648 26.2861L138.675 26.2813C138.643 26.2813 138.612 26.269 138.589 26.2471C138.567 26.2252 138.554 26.1955 138.554 26.1645V20.5759C138.554 20.417 138.474 20.3359 138.315 20.3327L137.552 20.3132C137.38 20.31 137.299 20.2241 137.308 20.0554L137.347 19.3404C137.354 19.1848 137.437 19.107 137.595 19.107L138.301 19.1167C138.46 19.1167 138.542 19.0373 138.549 18.8784C138.607 17.1322 139.099 15.9746 141.239 16.3443C141.401 16.3702 141.482 16.4659 141.482 16.6312L141.473 17.2879C141.469 17.4694 141.379 17.5505 141.2 17.5311C140.257 17.4192 139.673 18.0807 139.751 18.9902C139.767 19.1524 139.858 19.2334 140.023 19.2334H140.981C141.144 19.2302 141.226 19.3096 141.229 19.4718L141.239 20.0798C141.239 20.2451 141.157 20.3278 140.991 20.3278L140.013 20.3229C139.851 20.3229 139.77 20.4056 139.77 20.571Z" fill="#F0EFF0"/>
<path d="M88.3308 17.1001L87.7185 16.4879C87.6178 16.3873 87.4545 16.3873 87.3538 16.4879L86.6727 17.1689C86.572 17.2696 86.572 17.4328 86.6727 17.5335L87.285 18.1457C87.3857 18.2464 87.549 18.2464 87.6497 18.1457L88.3308 17.4647C88.4315 17.364 88.4315 17.2008 88.3308 17.1001Z" fill="#F0EFF0"/>
<path d="M143.784 18.7517V17.5357C143.782 17.4403 143.82 17.3482 143.887 17.2798C143.955 17.2114 144.047 17.1722 144.144 17.1709L144.747 17.1563C144.912 17.1531 144.995 17.2342 144.995 17.3995L145 18.7517C145.003 18.9171 145.086 18.9982 145.248 18.9949L146.09 18.9803C146.343 18.9771 146.466 19.1003 146.459 19.35L146.45 19.9239C146.446 20.1282 146.341 20.2271 146.133 20.2206L145.272 20.1963C145.117 20.1898 145.034 20.2644 145.024 20.42C144.961 21.709 144.387 25.3521 146.547 25.0554C146.651 25.0424 146.703 25.0894 146.703 25.1964L146.698 26.1595C146.698 26.2081 146.675 26.2373 146.63 26.247C144.697 26.5486 143.74 25.7947 143.759 23.9853C143.775 22.2829 143.785 21.1042 143.788 20.4492C143.792 20.2741 143.706 20.1898 143.531 20.1963L142.83 20.2255C142.797 20.2274 142.765 20.2226 142.734 20.2114C142.703 20.2001 142.675 20.1826 142.65 20.1598C142.626 20.1371 142.607 20.1097 142.594 20.0792C142.58 20.0487 142.573 20.0157 142.572 19.9823L142.567 19.2235C142.567 19.0581 142.652 18.9771 142.82 18.9803L143.535 18.9998C143.701 19.003 143.784 18.9203 143.784 18.7517Z" fill="#F0EFF0"/>
<path d="M172.628 23.4795C172.623 24.715 173.738 25.3959 174.881 24.9825C175.027 24.9274 175.145 24.8366 175.236 24.7101C175.593 24.201 176.1 24.0535 176.759 24.2675C176.914 24.3194 176.963 24.4231 176.905 24.5788C176.493 25.6229 175.753 26.1904 174.686 26.2812C172.705 26.453 171.569 25.524 171.281 23.4941C171.096 22.1776 171.289 21.0687 171.86 20.1672C172.91 18.5086 175.314 18.3967 176.418 20.0505C176.921 20.8028 177.094 21.8031 176.939 23.0515C176.922 23.1812 176.849 23.2461 176.72 23.2461H172.862C172.706 23.2461 172.628 23.3239 172.628 23.4795ZM173.013 22.1955L175.416 22.1468C175.449 22.1462 175.482 22.139 175.512 22.1257C175.543 22.1124 175.57 22.0933 175.593 22.0693C175.616 22.0454 175.634 22.0171 175.647 21.9862C175.659 21.9553 175.665 21.9223 175.664 21.889V21.8404C175.655 21.3968 175.5 20.9745 175.234 20.6662C174.967 20.3579 174.611 20.1889 174.243 20.1964H174.107C173.925 20.2 173.746 20.2469 173.579 20.3344C173.412 20.422 173.262 20.5484 173.136 20.7065C173.011 20.8646 172.912 21.0513 172.847 21.2559C172.781 21.4605 172.75 21.6789 172.755 21.8988V21.9474C172.755 21.9806 172.763 22.0134 172.776 22.0438C172.789 22.0743 172.808 22.1018 172.832 22.1248C172.856 22.1479 172.885 22.166 172.915 22.1781C172.946 22.1902 172.979 22.1961 173.013 22.1955Z" fill="#F0EFF0"/>
<path d="M94.7752 25.6835C88.7768 28.7819 89.3168 16.2086 94.6098 19.4188C94.7525 19.5031 94.8919 19.4982 95.0281 19.4042C95.3395 19.1902 95.7076 19.1416 96.1325 19.2583C96.2784 19.2972 96.3514 19.3912 96.3514 19.5404C96.3514 21.6951 96.7746 26.097 95.9379 27.7702C94.9454 29.74 91.3211 29.672 90.6498 27.1524C90.6461 27.1369 90.646 27.1208 90.6494 27.1052C90.6528 27.0896 90.6597 27.075 90.6695 27.0624C90.6793 27.0498 90.6918 27.0396 90.706 27.0324C90.7203 27.0253 90.736 27.0214 90.7519 27.0211L91.8611 27.0114C91.9681 27.0114 92.0444 27.0616 92.0898 27.1622C92.8681 28.9375 95.1303 27.6923 94.999 25.81C94.986 25.6544 94.9114 25.6122 94.7752 25.6835ZM95.0326 21.7689C95.0374 21.5728 95.0035 21.3778 94.9329 21.1948C94.8623 21.0119 94.7563 20.8446 94.6211 20.7026C94.4858 20.5606 94.3239 20.4466 94.1446 20.3672C93.9653 20.2877 93.7721 20.2444 93.576 20.2396L93.3328 20.2336C93.1368 20.2289 92.9417 20.2627 92.7587 20.3333C92.5757 20.4039 92.4084 20.5098 92.2664 20.6451C92.1243 20.7803 92.0103 20.9422 91.9309 21.1215C91.8514 21.3007 91.8081 21.4939 91.8033 21.69L91.7643 23.2848C91.7595 23.4809 91.7933 23.6759 91.8639 23.8589C91.9345 24.0418 92.0405 24.2091 92.1758 24.3511C92.311 24.4931 92.4729 24.6071 92.6522 24.6865C92.8316 24.766 93.0248 24.8093 93.2208 24.8141L93.464 24.82C93.6601 24.8248 93.8552 24.791 94.0381 24.7204C94.2211 24.6498 94.3884 24.5438 94.5305 24.4086C94.6725 24.2734 94.7865 24.1115 94.8659 23.9322C94.9454 23.7529 94.9888 23.5598 94.9936 23.3637L95.0326 21.7689Z" fill="#F0EFF0"/>
<path d="M113.817 25.8096C113.612 26.0236 113.348 26.1614 113.024 26.223C108.825 27.0499 108.888 21.2764 113.719 21.7968C114.225 21.8519 114.389 21.6396 114.211 21.1596L114.113 20.9019C113.99 20.5744 113.761 20.362 113.427 20.2647C112.574 20.0247 111.981 20.2712 111.647 21.004C111.559 21.1986 111.408 21.2975 111.194 21.3007H110.917C110.782 21.3016 110.65 21.2617 110.537 21.1862C110.425 21.1107 110.338 21.0031 110.289 20.8774C110.239 20.7518 110.228 20.614 110.257 20.4821C110.287 20.3502 110.356 20.2303 110.455 20.1382C111.713 18.9871 113.024 18.7099 114.386 19.3065C115.981 20.002 115.403 24.2288 115.621 25.9166C115.638 26.056 115.578 26.1419 115.441 26.1744C114.919 26.2943 114.503 26.176 114.191 25.8193C114.068 25.6799 113.943 25.6766 113.817 25.8096ZM111.914 23.3436C111.742 23.4049 111.593 23.5166 111.485 23.6641C111.378 23.8116 111.317 23.988 111.311 24.1704C111.263 25.9263 114.104 25.3669 114.259 23.4457C114.272 23.2706 114.193 23.1717 114.021 23.149C113.291 23.042 112.589 23.1068 111.914 23.3436Z" fill="#F0EFF0"/>
<path d="M135.737 23.8404C135.725 24.5343 135.438 25.195 134.939 25.6771C134.439 26.1592 133.769 26.4232 133.075 26.4111L132.618 26.4031C131.923 26.391 131.263 26.1038 130.78 25.6045C130.298 25.1053 130.034 24.435 130.046 23.7411L130.084 21.5818C130.096 20.8879 130.383 20.2272 130.883 19.7452C131.382 19.2631 132.053 18.999 132.747 19.0111L133.204 19.0191C133.898 19.0312 134.559 19.3185 135.041 19.8177C135.523 20.3169 135.787 20.9872 135.775 21.6811L135.737 23.8404ZM134.489 21.6383C134.486 21.448 134.445 21.2602 134.369 21.0856C134.293 20.9111 134.184 20.7532 134.047 20.6209C133.91 20.4887 133.748 20.3847 133.571 20.315C133.394 20.2452 133.205 20.211 133.014 20.2143L132.79 20.2183C132.406 20.225 132.04 20.3841 131.773 20.6606C131.506 20.9371 131.36 21.3084 131.366 21.6928L131.4 23.6478C131.404 23.8381 131.445 24.0259 131.52 24.2004C131.596 24.375 131.706 24.5329 131.843 24.6651C131.98 24.7974 132.141 24.9013 132.319 24.9711C132.496 25.0409 132.685 25.0751 132.875 25.0717L133.099 25.0678C133.483 25.0611 133.849 24.902 134.117 24.6254C134.384 24.3489 134.53 23.9777 134.523 23.5933L134.489 21.6383Z" fill="#F0EFF0"/>
<path d="M162.46 25.7806C158.816 28.5044 155.956 21.4565 162.387 21.7775C162.442 21.7802 162.497 21.7707 162.547 21.7499C162.598 21.729 162.644 21.6973 162.681 21.657C162.718 21.6166 162.746 21.5686 162.762 21.5163C162.779 21.464 162.784 21.4087 162.776 21.3544L162.752 21.1744C162.697 20.7529 162.468 20.4708 162.066 20.3281C161.213 20.033 160.598 20.2195 160.222 20.8875C160.063 21.1663 159.825 21.3041 159.507 21.3009H159.264C158.823 21.2944 158.695 21.0917 158.88 20.6929C159.969 18.3339 164.046 18.2123 163.954 21.3301C163.911 22.8509 163.988 24.3668 164.182 25.8778C164.198 26.014 164.142 26.1016 164.012 26.1405C163.493 26.2961 163.081 26.1891 162.776 25.8195C162.682 25.706 162.577 25.693 162.46 25.7806ZM159.935 24.5062C160.611 26.0578 162.786 24.8856 162.781 23.441C162.782 23.3673 162.755 23.296 162.705 23.2404C162.656 23.1849 162.588 23.149 162.514 23.1394C161.794 23.0584 161.104 23.1297 160.446 23.3535C160.334 23.3914 160.231 23.4523 160.143 23.5322C160.055 23.6121 159.985 23.7093 159.937 23.8177C159.889 23.926 159.864 24.0432 159.864 24.1617C159.864 24.2802 159.888 24.3975 159.935 24.5062Z" fill="#F0EFF0"/>
<path d="M100.224 19.5694C101.417 18.8009 102.523 18.9063 103.542 19.8855C103.678 20.0185 103.809 20.012 103.936 19.8661C104.276 19.464 104.628 19.2305 104.991 19.1657C106.941 18.8187 107.913 19.6099 107.91 21.5393C107.907 23.1087 107.907 24.6149 107.91 26.0578C107.91 26.1185 107.886 26.1766 107.843 26.2195C107.8 26.2624 107.742 26.2864 107.682 26.2864L106.816 26.2913C106.65 26.2913 106.568 26.2102 106.568 26.0481V21.4517C106.568 21.2983 106.537 21.1464 106.476 21.0053C106.416 20.8642 106.328 20.7368 106.217 20.6308C106.106 20.5249 105.975 20.4425 105.831 20.3888C105.687 20.3351 105.534 20.3112 105.381 20.3184L105.006 20.3379C104.711 20.3504 104.432 20.4767 104.227 20.6905C104.022 20.9043 103.907 21.1891 103.906 21.4858L103.887 26.0433C103.887 26.1069 103.862 26.1681 103.817 26.2135C103.773 26.259 103.712 26.2852 103.649 26.2864L102.933 26.2913C102.775 26.2946 102.695 26.2167 102.695 26.0578L102.637 21.5344C102.627 20.6719 102.191 20.2682 101.328 20.3233L100.949 20.3476C100.661 20.3649 100.39 20.4907 100.193 20.6995C99.9946 20.9082 99.884 21.1842 99.8832 21.4712L99.8735 26.1697C99.8735 26.2007 99.8607 26.2304 99.8378 26.2523C99.815 26.2742 99.7841 26.2864 99.7518 26.2864L98.7837 26.2816C98.7515 26.2816 98.7205 26.2693 98.6977 26.2474C98.6749 26.2255 98.6621 26.1958 98.6621 26.1649V19.584C98.6621 19.4316 98.7335 19.3294 98.8762 19.2775C99.3367 19.1186 99.7016 19.203 99.9708 19.5305C100.042 19.618 100.126 19.631 100.224 19.5694Z" fill="#F0EFF0"/>
<path d="M168.245 19.4526C168.677 19.1284 169.173 19.0197 169.734 19.1267C169.938 19.1657 170.044 19.2872 170.05 19.4915L170.074 20.0509C170.084 20.2811 169.975 20.3768 169.748 20.3379C166.873 19.8369 167.759 24.4965 167.739 26.0822C167.736 26.2216 167.665 26.2913 167.525 26.2913L166.528 26.2816C166.447 26.2816 166.406 26.2427 166.406 26.1648V19.6083C166.406 19.4591 166.481 19.3764 166.63 19.3602C167.022 19.3213 167.4 19.3732 167.764 19.5159C167.935 19.5839 168.096 19.5629 168.245 19.4526Z" fill="#F0EFF0"/>
<path d="M87.8946 19.2326L87.0384 19.2341C86.939 19.2342 86.8585 19.3149 86.8587 19.4143L86.8704 26.1071C86.8706 26.2065 86.9513 26.2869 87.0507 26.2867L87.9069 26.2852C88.0063 26.2851 88.0868 26.2044 88.0866 26.105L88.0749 19.4122C88.0748 19.3128 87.994 19.2324 87.8946 19.2326Z" fill="#F0EFF0"/>
<path d="M150.765 23.4942L152.059 19.4912C152.114 19.3226 152.231 19.2367 152.409 19.2334L152.92 19.2237C153.14 19.2205 153.281 19.3242 153.343 19.535L154.418 23.3386C154.554 23.812 154.678 23.8088 154.788 23.3289L155.669 19.462C155.704 19.3096 155.8 19.2318 155.956 19.2286H156.899C157.061 19.2286 157.123 19.3064 157.084 19.462L155.352 26.0673C155.313 26.2132 155.218 26.2861 155.065 26.2861H154.399C154.25 26.2861 154.152 26.2148 154.107 26.0721L152.813 21.7821C152.804 21.7552 152.786 21.7319 152.763 21.7153C152.74 21.6988 152.712 21.6899 152.684 21.6899C152.655 21.6899 152.628 21.6988 152.605 21.7153C152.582 21.7319 152.564 21.7552 152.555 21.7821C152.201 23.0111 151.822 24.2708 151.417 25.5614C151.225 26.1743 150.847 26.4158 150.283 26.2861C150.14 26.2537 150.05 26.1662 150.011 26.0235L148.167 19.3696C148.163 19.3541 148.163 19.338 148.167 19.3224C148.17 19.3068 148.177 19.2922 148.187 19.2796C148.196 19.267 148.209 19.2568 148.223 19.2496C148.237 19.2425 148.253 19.2386 148.269 19.2383L149.407 19.2334C149.498 19.2334 149.555 19.2788 149.578 19.3696L150.541 23.4845C150.606 23.7601 150.68 23.7634 150.765 23.4942Z" fill="#F0EFF0"/>
<path d="M106.354 36.3548C107.305 36.3548 108.076 35.5839 108.076 34.633C108.076 33.682 107.305 32.9111 106.354 32.9111C105.403 32.9111 104.632 33.682 104.632 34.633C104.632 35.5839 105.403 36.3548 106.354 36.3548Z" fill="#D12E26"/>
<path d="M154.136 36.3548C155.087 36.3548 155.858 35.5839 155.858 34.633C155.858 33.682 155.087 32.9111 154.136 32.9111C153.185 32.9111 152.414 33.682 152.414 34.633C152.414 35.5839 153.185 36.3548 154.136 36.3548Z" fill="#D12E26"/>
<path d="M85.2348 52.1574C82.5397 52.7411 79.1586 51.9677 78.0688 49.1807C77.8061 48.5062 77.665 47.2043 77.6456 45.275C77.6034 41.2541 77.6002 37.2624 77.6359 33.3C77.6391 33.1638 77.7072 33.0957 77.8402 33.0957H80.511C80.6115 33.0957 80.6618 33.1476 80.6618 33.2513C80.6586 37.684 80.6602 42.1701 80.6667 46.7098C80.6764 50.5669 85.8721 51.0776 86.3683 47.4929C86.991 42.9597 86.631 37.9158 86.6213 33.334C86.6213 33.2708 86.6464 33.2102 86.6911 33.1655C86.7358 33.1208 86.7965 33.0957 86.8597 33.0957L89.3067 33.0908C89.3686 33.0908 89.428 33.1149 89.4718 33.1578C89.5156 33.2006 89.5402 33.2588 89.5402 33.3194C89.5435 37.6807 89.5402 42.1053 89.5305 46.5931C89.5256 49.5066 88.1391 51.53 85.2348 52.1574Z" fill="#D12E26"/>
<path d="M162.163 40.5033C162.124 42.9417 162.129 45.377 162.178 47.8089C162.2 48.8303 162.578 49.508 163.311 49.842C163.483 49.9231 163.66 49.9328 163.842 49.8712C164.208 49.7415 164.587 49.7075 164.98 49.7691C165.119 49.7918 165.189 49.8728 165.189 50.0123V51.5541C165.189 51.6903 165.123 51.773 164.99 51.8022C162.609 52.3048 160.952 51.739 160.018 50.1047C158.821 48.0083 159.361 43.1833 159.351 40.5228C159.351 40.3541 159.267 40.2698 159.098 40.2698H157.833C157.548 40.2698 157.405 40.1288 157.405 39.8467V38.3875C157.405 38.1021 157.546 37.9595 157.829 37.9595H159.108C159.27 37.9595 159.351 37.8784 159.351 37.7163V34.4331C159.351 34.4009 159.364 34.3699 159.387 34.3471C159.41 34.3243 159.441 34.3115 159.473 34.3115H162.027C162.059 34.3115 162.09 34.3243 162.113 34.3471C162.136 34.3699 162.149 34.4009 162.149 34.4331V37.7163C162.149 37.8784 162.23 37.9595 162.392 37.9595H164.459C164.618 37.9595 164.699 38.0405 164.703 38.2027L164.707 40.0266C164.707 40.1888 164.625 40.2698 164.459 40.2698H162.402C162.246 40.2698 162.166 40.3477 162.163 40.5033Z" fill="#D12E26"/>
<path d="M94.8483 39.288C96.6289 37.4981 100.239 36.9728 101.659 39.5604C102.279 40.6856 102.572 41.8951 102.54 43.1889C102.475 46.0813 102.438 48.9088 102.428 51.6716C102.428 51.7688 102.379 51.8175 102.282 51.8175L99.7813 51.8223C99.684 51.8223 99.6354 51.7737 99.6354 51.6764C99.6354 48.6608 99.6354 45.5884 99.6354 42.4593C99.6354 38.6751 94.6245 39.8863 94.6391 43.5974C94.6521 46.3407 94.6537 49.0386 94.644 51.691C94.644 51.7246 94.6307 51.7567 94.607 51.7804C94.5832 51.8042 94.5511 51.8175 94.5175 51.8175L91.9732 51.8223C91.9409 51.8223 91.91 51.8095 91.8872 51.7867C91.8644 51.7639 91.8516 51.733 91.8516 51.7007V38.4465C91.8516 38.2033 91.9732 38.0817 92.2164 38.0817H94.2937C94.5435 38.0817 94.6635 38.2066 94.6537 38.4563L94.6245 39.1907C94.6148 39.4145 94.6894 39.4469 94.8483 39.288Z" fill="#D12E26"/>
<path d="M124.475 46.3305C124.46 48.0912 125.312 50.6934 127.584 49.5991C128.133 49.3315 128.425 48.7576 128.586 48.2372C128.673 47.9518 128.865 47.8091 129.16 47.8091H131.101C131.412 47.8091 131.515 47.9551 131.407 48.2469C129.301 53.9669 122.242 52.8871 121.58 47.0893C121.128 43.1203 121.498 37.5949 126.907 37.7943C131.232 37.9548 131.947 42.3956 131.719 45.883C131.709 46.0322 131.631 46.1068 131.485 46.1068H124.704C124.551 46.1068 124.475 46.1813 124.475 46.3305ZM124.611 43.7964H128.737C128.775 43.7964 128.812 43.781 128.84 43.7537C128.867 43.7263 128.883 43.6892 128.883 43.6505V43.5532C128.883 42.6167 128.66 41.7185 128.263 41.0563C127.866 40.394 127.328 40.022 126.766 40.022H126.582C126.02 40.022 125.482 40.394 125.085 41.0563C124.688 41.7185 124.465 42.6167 124.465 43.5532V43.6505C124.465 43.6892 124.481 43.7263 124.508 43.7537C124.535 43.781 124.573 43.7964 124.611 43.7964Z" fill="#D12E26"/>
<path d="M136.861 39.1513C137.698 37.9613 138.839 37.5722 140.286 37.984C140.513 38.0489 140.626 38.1996 140.626 38.4363L140.612 39.8858C140.611 39.9212 140.603 39.9561 140.587 39.9878C140.571 40.0195 140.548 40.0472 140.52 40.0688C140.492 40.0903 140.459 40.1052 140.425 40.1123C140.39 40.1193 140.354 40.1184 140.32 40.1095C138.831 39.7172 137.761 40.1112 137.109 41.2915C136.772 41.9043 136.603 42.8804 136.603 44.2196C136.609 46.6839 136.611 49.0997 136.608 51.4668C136.608 51.5274 136.583 51.5856 136.539 51.6285C136.496 51.6713 136.436 51.6954 136.374 51.6954L134.054 51.7003C133.892 51.7003 133.811 51.6192 133.811 51.4571V38.3245C133.811 38.0813 133.932 37.9597 134.175 37.9597H136.253C136.502 37.9597 136.622 38.0845 136.613 38.3342L136.593 39.0638C136.584 39.3913 136.673 39.4205 136.861 39.1513Z" fill="#D12E26"/>
<path d="M144.538 41.1403C143.288 44.1754 151.986 42.7843 150.755 49.1658C149.982 53.1883 141.157 53.5288 141.104 47.6872C141.104 47.6708 141.107 47.6546 141.113 47.6395C141.12 47.6244 141.129 47.6108 141.141 47.5994C141.153 47.5881 141.167 47.5792 141.182 47.5734C141.197 47.5676 141.214 47.5649 141.23 47.5656L143.375 47.5704C143.409 47.572 143.44 47.5844 143.465 47.6056C143.49 47.6268 143.506 47.6556 143.512 47.6872C143.765 49.1755 144.619 49.8905 146.075 49.8322C148.571 49.7349 148.43 47.123 146.469 46.442C144.645 45.8097 142.553 45.2504 141.916 43.4215C139.698 37.0595 150.459 35.5614 150.794 41.904C150.804 42.1115 150.707 42.2153 150.502 42.2153H148.547C148.346 42.2153 148.255 42.1147 148.274 41.9137C148.469 40.0605 145.346 39.1899 144.538 41.1403Z" fill="#D12E26"/>
<path d="M107.73 38.0811H105.161C105.065 38.0811 104.986 38.1595 104.986 38.2562V51.6417C104.986 51.7384 105.065 51.8168 105.161 51.8168H107.73C107.827 51.8168 107.905 51.7384 107.905 51.6417V38.2562C107.905 38.1595 107.827 38.0811 107.73 38.0811Z" fill="#D12E26"/>
<path d="M115.369 47.0404L117.962 38.1832C117.971 38.152 117.99 38.1247 118.017 38.1054C118.043 38.0861 118.075 38.0758 118.107 38.0762L120.744 38.0908C120.768 38.091 120.792 38.0969 120.813 38.108C120.834 38.1191 120.852 38.135 120.866 38.1545C120.879 38.1739 120.888 38.1964 120.892 38.22C120.895 38.2436 120.893 38.2676 120.885 38.2902L116.181 51.7146C116.171 51.7442 116.152 51.7698 116.127 51.7881C116.101 51.8064 116.071 51.8164 116.04 51.8168L114.41 51.8216C114.379 51.8213 114.349 51.8113 114.323 51.793C114.298 51.7747 114.279 51.749 114.269 51.7195L109.57 38.2853C109.562 38.2624 109.56 38.2379 109.563 38.2139C109.567 38.1899 109.576 38.1672 109.591 38.1476C109.605 38.128 109.624 38.1122 109.646 38.1015C109.667 38.0907 109.691 38.0854 109.716 38.0859L112.245 38.0762C112.278 38.0758 112.31 38.0861 112.336 38.1054C112.362 38.1247 112.382 38.152 112.391 38.1832L115.082 47.0453C115.092 47.0755 115.111 47.1016 115.138 47.1199C115.164 47.1383 115.195 47.1479 115.227 47.1473C115.259 47.1468 115.29 47.1361 115.315 47.1169C115.341 47.0977 115.359 47.0709 115.369 47.0404Z" fill="#D12E26"/>
<path d="M155.504 38.0762H152.984C152.873 38.0762 152.784 38.1655 152.784 38.2756V51.6222C152.784 51.7323 152.873 51.8216 152.984 51.8216H155.504C155.614 51.8216 155.703 51.7323 155.703 51.6222V38.2756C155.703 38.1655 155.614 38.0762 155.504 38.0762Z" fill="#D12E26"/>
<path d="M168.931 57.2936H166.504C166.364 56.6062 166.345 55.9155 166.445 55.2216C166.471 55.0594 166.564 54.9946 166.722 55.027C168.917 55.4842 169.598 53.3684 170.031 51.739C170.072 51.577 170.067 51.4083 170.016 51.2526L165.677 38.2319C165.671 38.2149 165.67 38.1969 165.672 38.1794C165.675 38.1618 165.681 38.1452 165.691 38.131C165.701 38.1167 165.714 38.1051 165.73 38.0973C165.745 38.0895 165.762 38.0856 165.779 38.086H168.591C168.662 38.086 168.706 38.12 168.722 38.1881L171.169 47.1961C171.24 47.462 171.312 47.4636 171.383 47.201L173.815 38.3097C173.835 38.2384 173.882 38.2027 173.957 38.2027L176.764 38.2076C176.778 38.2076 176.793 38.2111 176.806 38.2178C176.819 38.2244 176.83 38.2341 176.838 38.246C176.847 38.2578 176.853 38.2716 176.855 38.286C176.857 38.3005 176.856 38.3153 176.851 38.3292C174.169 46.7373 172.382 52.2367 171.49 54.8276C171.059 56.0857 170.206 56.9077 168.931 57.2936Z" fill="#D12E26"/>
</g>
<defs>
<clipPath id="clip0_871_2201">
<rect width="154.217" height="43.2889" fill="white" transform="translate(22.8916 14.0049)"/>
</clipPath>
</defs>
</svg>
