<svg width="117" height="136" viewBox="0 0 117 136" fill="none" xmlns="http://www.w3.org/2000/svg">
<path d="M102.59 68.0976L96.9696 53.1885L101.124 43.6207L101.43 43.3869L96.9336 42.4877L99.928 38.8908L91.5922 27.6415L93.0849 22.426L93.1928 22.0483L80.8285 17.8489L75.2173 8.7218V8.58691H75.1634L75.0105 8.70381L65.3978 12.8672L58.9503 8.64087L52.359 12.8672L43.1779 8.81172L42.9711 8.7218H42.7643C42.7232 8.73696 42.6862 8.76161 42.6564 8.79374L42.5934 8.85668L42.3237 9.2973C42.3237 9.2973 42.2697 9.37823 42.2427 9.43218L42.1528 9.58505L42.0359 9.7649L41.6313 10.4123C41.5863 10.4933 41.5413 10.5742 41.4874 10.6551L41.2626 11.0238L41.1637 11.1947L41.0198 11.4105L40.795 11.7792C40.7593 11.8441 40.7203 11.9071 40.6781 11.968L40.2285 12.6964C40.1682 12.8047 40.1022 12.9098 40.0306 13.0111L39.635 13.6675L39.4461 13.9643L38.9875 14.7106C38.9519 14.7756 38.9128 14.8386 38.8706 14.8995L38.6908 15.1962C38.6368 15.2951 38.5739 15.3851 38.511 15.484L38.3401 15.7627L38.1782 16.0325L38.0164 16.2843L37.8725 16.5271L37.7376 16.7519L37.6027 16.9587L37.4858 17.1475L37.3959 17.3004L37.3689 17.3633V17.4173C37.3689 17.4173 37.3689 17.4173 37.3689 17.4892L37.288 17.6241V17.6871L25.0316 21.7336L24.8787 21.8055L24.7798 21.8595L26.4523 27.5965L18.0266 38.9447L21.057 42.5416L17.7928 43.1981L17.1274 43.315L17.2533 43.5488L20.8502 53.1255L15.293 68.0436V68.1875L22.8644 79.9584V80.0303L23.0803 80.2192L23.1522 80.336L33.5023 89.8409L33.6731 89.9668L33.862 90.1196L40.5432 95.7577L41.973 83.3035H48.5283L54.0046 89.9578V90.0567H64.1209V90.0027L69.6601 83.2765H75.9547L77.3844 95.7308L83.9668 90.1736L84.2815 89.9128L94.9643 80.0753L95.0812 79.9494L102.59 68.0976ZM80.0102 18.0198L69.9838 31.1125L75.1364 10.1156L80.0102 18.0198ZM93.3547 78.6185L94.101 79.8685L84.3445 88.8607L81.332 58.2871L93.3547 78.6185ZM69.5522 82.5302L66.7196 76.9999H71.6384L74.6868 72.0362L75.8917 82.5122L69.5522 82.5302ZM58.6356 73.6998V76.1906H53.7079L58.6356 73.6998ZM42.0629 82.5302L43.2589 72.0542L46.3162 77.0179H51.271L48.3934 82.5302H42.0629ZM59.0133 26.7782L52.8626 13.5237L58.9503 9.59404L64.9302 13.5237L59.0133 26.7782ZM58.6356 46.2105V59.3212H56.0368L58.6356 46.2105ZM37.8905 56.03L49.3376 47.0378L42.9441 69.5903L37.8905 56.03ZM36.6226 58.2421L33.772 87.2781L33.6102 88.8517L23.8806 79.8685L36.6226 58.2421ZM25.8319 22.8756L47.4133 32.884L28.9072 33.7832L27.3156 28.0731L25.8319 22.8756ZM42.2787 41.9481L37.3689 54.6632L31.7128 40.4195H31.6049L29.2759 34.6734L42.2787 41.9481ZM43.3398 41.6424L30.5258 34.4486L48.5103 33.6213L49.2297 41.6154L43.3398 41.6424ZM49.6344 45.2393L44.6796 42.5416H49.3916L49.6344 45.2393ZM50.3537 45.2393L50.1649 42.4247L49.3826 33.7922L58.2939 41.5435L50.3537 45.2393ZM42.9621 42.5416H43.0251L49.3826 46.0486L38.1423 54.8161L42.9621 42.5416ZM19.0427 38.9447L26.6682 28.6037L28.2688 34.3047L30.7866 40.5993L21.8843 42.3348L19.0427 38.9447ZM37.5128 57.3339L42.5575 70.8222L34.6713 86.4688L37.5128 57.3339ZM43.6635 70.0309L50.3897 46.2824V46.1385L58.4827 42.3888L55.0747 59.6269L43.6635 70.0309ZM55.3534 60.5261L58.6266 67.3063V72.7016L51.6396 76.2356H46.7568L43.6635 71.2179L55.3534 60.5261ZM58.3838 27.2998L49.3916 32.3804L52.5209 14.6657L58.3838 27.2998ZM58.6266 28.0551V40.6443L49.8682 33.0368L54.2654 30.564C56.972 29.0533 58.141 28.3699 58.6356 28.0641L58.6266 28.0551ZM18.9798 43.7646L31.2182 41.3277L36.7125 55.2207L18.9798 43.7646ZM23.8806 78.2139L23.3051 79.1761L16.1113 67.9807L36.6855 56.5156L23.8806 78.2139ZM58.6086 60.2294V65.2561L56.2527 60.2204L58.6086 60.2294ZM64.2378 76.1996H59.5079V73.8077L64.2378 76.1996ZM59.5079 65.2381V60.2204H61.8998L59.5079 65.2381ZM59.5079 72.8006V67.3153L62.7181 60.5891L74.3091 71.119L71.1618 76.2356H66.306L59.5079 72.8006ZM62.1516 59.3122H59.5079V46.1385L62.1516 59.3122ZM86.053 41.1388L80.6217 54.6992L75.7029 42.0201L88.6158 34.8263L86.062 41.1209L86.053 41.1388ZM73.3379 42.4877L68.3832 45.1854L68.626 42.4877H73.3379ZM74.9835 42.4877H75.0465L79.8303 54.8161L68.635 45.9947L74.9835 42.4877ZM87.5727 34.4576L74.6418 41.6964H68.662L69.3903 33.6033L87.5727 34.4576ZM67.6998 45.2933L59.8496 41.4985L68.5631 33.8371L67.8347 41.8402L67.6998 45.2933ZM63.2037 59.7618L59.7327 42.4068L67.6189 46.2374L74.1472 69.7072L63.2037 59.7618ZM81.2961 55.2657L86.9072 41.3277L99.4155 43.7376L81.2961 55.2657ZM96.0703 42.2719L87.168 40.5364L89.6319 34.4486L91.3224 28.5767L98.9119 38.9447L96.0703 42.2719ZM89.0204 33.7202L74.3091 33.0728L70.7122 32.893L92.0418 23.1723L89.0204 33.7202ZM69.0396 31.2744L65.8834 13.5506L74.3181 9.80087L69.0396 31.2744ZM59.6248 27.3357L65.2449 14.6657L68.3832 32.2905L59.6248 27.3357ZM59.5348 40.6173V28.199L68.1314 33.0458L59.5348 40.6173ZM80.1001 56.1469L74.9835 69.8601L68.6889 47.0557L80.1001 56.1469ZM80.4598 57.8195L83.2744 86.4328L75.5141 71.083L80.4598 57.8195ZM82.7798 55.2207L99.919 44.43L96.2682 52.8468L82.7798 55.2207ZM81.9615 56.1649L96.2772 53.6021L101.214 66.8207L81.9615 56.1649ZM81.422 56.7764L101.708 68.0077L94.6226 79.194L81.422 56.7764ZM69.9119 32.3624L80.5317 18.5953L91.772 22.408L69.9119 32.3624ZM51.9274 13.5596L48.7711 31.2114L43.5106 9.82784L51.9274 13.5596ZM26.2365 22.1742L37.3689 18.4964L47.8629 32.1916L26.2365 22.1742ZM35.7054 56.1649L16.6238 66.8207L21.5336 53.6111L35.7054 56.1649ZM35.3817 55.2657L21.6145 52.8108L18.4043 44.3401L35.3817 55.2657ZM34.3385 89.4812L34.4195 88.6269L42.3506 72.9894L39.9227 94.1751L34.3385 89.4812ZM52.0893 77.0539H58.6356V89.2114H54.4003L49.1488 82.8269L52.0893 77.0539ZM59.5348 89.1754V77.0898H65.8294L68.8868 83.0427L63.7972 89.2114L59.5348 89.1754ZM37.9534 17.9209L42.7643 10.1695L47.8539 30.8517L37.9534 17.9209ZM78.0499 94.1751L75.613 73.1153L83.5351 88.7528L83.6161 89.5261L78.0499 94.1751ZM28.9072 109.462V122.77H34.2306V126.529H24.4561V109.444L28.9072 109.462ZM48.2586 121.566H39.7159C39.7151 122.266 39.9674 122.943 40.4263 123.472C40.8943 123.873 41.5019 124.074 42.1168 124.029C42.5771 124.023 43.0307 123.918 43.4477 123.724C43.7559 123.543 44.0056 123.278 44.1671 122.959H48.0877C47.8462 123.855 47.3678 124.669 46.7029 125.315C46.0748 125.882 45.3378 126.314 44.5369 126.586C43.7361 126.859 42.8881 126.965 42.0449 126.898C41.1793 126.938 40.3144 126.805 39.5007 126.507C38.687 126.209 37.9409 125.752 37.306 125.162C36.7502 124.589 36.3144 123.91 36.0241 123.166C35.7338 122.421 35.5949 121.627 35.6155 120.828C35.5991 120.014 35.7458 119.205 36.0469 118.448C36.3481 117.691 36.7976 117.002 37.3689 116.422C37.9998 115.847 38.7391 115.403 39.5436 115.118C40.3481 114.832 41.2016 114.71 42.0539 114.758C43.6678 114.692 45.2454 115.249 46.4601 116.314C47.0755 116.95 47.5529 117.707 47.8624 118.536C48.1719 119.366 48.3067 120.25 48.2586 121.134V121.566ZM44.4908 119.21C44.3798 118.751 44.1504 118.329 43.8254 117.987C43.3647 117.567 42.7578 117.344 42.1348 117.366C41.8296 117.348 41.524 117.394 41.2375 117.501C40.951 117.607 40.69 117.773 40.4713 117.987C40.1478 118.323 39.9345 118.749 39.8598 119.21H44.4908ZM62.1336 125.028C60.711 126.246 58.8994 126.916 57.026 126.916C55.1526 126.916 53.341 126.246 51.9184 125.028C51.358 124.478 50.9129 123.823 50.609 123.099C50.3051 122.376 50.1485 121.599 50.1485 120.815C50.1485 120.03 50.3051 119.253 50.609 118.53C50.9129 117.806 51.358 117.151 51.9184 116.602C53.2971 115.321 55.1273 114.639 57.008 114.704C58.8988 114.643 60.7386 115.324 62.1336 116.602C62.7093 117.138 63.1667 117.788 63.4764 118.511C63.7861 119.235 63.9413 120.015 63.932 120.801C63.9378 121.593 63.7794 122.377 63.4667 123.105C63.1541 123.832 62.694 124.487 62.1156 125.028H62.1336ZM55.1736 118.976C54.7962 119.335 54.5351 119.799 54.4241 120.309C54.3131 120.818 54.3572 121.349 54.5508 121.833C54.7444 122.317 55.0785 122.731 55.5101 123.023C55.9416 123.316 56.4509 123.472 56.972 123.472C57.6481 123.461 58.2933 123.187 58.7705 122.708C59.0162 122.476 59.2129 122.198 59.3488 121.889C59.4848 121.58 59.5572 121.247 59.5618 120.909C59.5595 120.217 59.2842 119.554 58.796 119.065C58.3077 118.575 57.6458 118.297 56.9541 118.292C56.299 118.305 55.6691 118.547 55.1736 118.976ZM70.3255 107.915V116.233C70.7568 115.759 71.2834 115.382 71.8708 115.127C72.4582 114.871 73.093 114.742 73.7336 114.749C75.2298 114.723 76.6788 115.274 77.7801 116.287C78.3777 116.873 78.8513 117.572 79.1727 118.345C79.494 119.117 79.6565 119.947 79.6505 120.783C79.6708 121.625 79.5221 122.462 79.2132 123.245C78.9043 124.028 78.4414 124.741 77.852 125.342C77.3231 125.863 76.6945 126.272 76.0038 126.544C75.3131 126.816 74.5746 126.945 73.8325 126.925C73.167 126.946 72.506 126.809 71.9041 126.524C71.3021 126.24 70.7765 125.816 70.3705 125.288V126.538H66.2341V107.87L70.3255 107.915ZM74.6508 122.717C75.1431 122.245 75.4305 121.599 75.4511 120.918C75.4488 120.191 75.1615 119.493 74.6508 118.976C74.4168 118.737 74.1369 118.547 73.8278 118.419C73.5188 118.291 73.187 118.226 72.8523 118.229C72.5042 118.223 72.1585 118.288 71.8367 118.421C71.5149 118.554 71.2239 118.752 70.982 119.003C70.5251 119.512 70.2556 120.163 70.2176 120.846C70.2271 121.214 70.3117 121.576 70.4664 121.91C70.621 122.244 70.8424 122.543 71.1168 122.788C71.6137 123.228 72.2521 123.474 72.9153 123.481C73.5771 123.447 74.1997 123.157 74.6508 122.672V122.717ZM84.0477 108.068C84.5055 108.066 84.9536 108.201 85.335 108.454C85.7164 108.707 86.014 109.068 86.19 109.491C86.3661 109.913 86.4126 110.379 86.3237 110.828C86.2348 111.277 86.0145 111.69 85.6908 112.013C85.3671 112.337 84.9545 112.557 84.5053 112.646C84.0562 112.735 83.5908 112.689 83.1681 112.512C82.7455 112.336 82.3847 112.039 82.1314 111.657C81.8782 111.276 81.7439 110.828 81.7457 110.37C81.7385 110.064 81.7927 109.759 81.9053 109.474C82.0179 109.189 82.1864 108.929 82.4011 108.711C82.6157 108.492 82.872 108.318 83.1548 108.2C83.4376 108.082 83.7412 108.022 84.0477 108.023V108.068ZM86.0979 115.136V126.529H81.9975V115.091L86.0979 115.136ZM93.4176 118.49V126.583H89.3262V118.49H88.0133V115.136H89.3262V111.368H93.4176V115.136H95.7466V118.49H93.4176Z" fill="#57B12D"/>
</svg>
