<svg width="200" height="36" viewBox="0 0 200 36" fill="none" xmlns="http://www.w3.org/2000/svg">
<g clip-path="url(#clip0_871_2232)">
<path d="M12.4679 16.2828H21.2201C20.0866 20.3034 16.3922 23.2653 12.0081 23.2653C6.73653 23.2653 2.43798 18.9721 2.43798 13.6952C2.43798 8.41822 6.74187 4.12502 12.0081 4.12502C15.9966 4.12502 19.4237 6.57904 20.8618 10.0542H23.4602C21.9151 5.21035 17.3706 1.69238 12.0135 1.69238C5.39457 1.69238 0 7.07626 0 13.6952C0 20.3141 5.39457 25.7033 12.0081 25.7033C15.7934 25.7033 19.3114 23.8053 21.3698 21.0626V25.1847H23.5939V13.8823H12.4679V16.2828Z" fill="#414042"/>
<path d="M30.0515 2.43555H27.6562V25.1847H30.0515V2.43555Z" fill="#414042"/>
<path d="M100.839 2.43555H98.4434V25.158H100.839V2.43555Z" fill="#414042"/>
<path d="M42.5416 23.5374C38.8579 23.5374 35.8692 20.3723 35.8692 16.7047C35.8692 13.037 38.8579 9.88794 42.5416 9.88794C46.2253 9.88794 49.2139 13.0263 49.2139 16.7047C49.2139 20.383 46.2199 23.5374 42.5416 23.5374ZM42.5416 7.61035C37.5213 7.61035 33.4473 11.6843 33.4473 16.6993C33.4473 21.7143 37.5266 25.7883 42.5416 25.7883C47.5565 25.7883 51.6412 21.7089 51.6412 16.6993C51.6412 11.6897 47.5565 7.61035 42.5416 7.61035Z" fill="#414042"/>
<path d="M63.5163 23.538C59.8272 23.538 56.8386 20.3729 56.8386 16.7052C56.8386 13.0376 59.8272 9.8885 63.5163 9.8885C67.2053 9.8885 70.1833 13.0269 70.1833 16.7052C70.1833 20.3836 67.1946 23.5433 63.5163 23.5433M63.6179 7.44517C60.9233 7.44517 58.512 8.62674 56.8386 10.5033V2.43555H54.4434V25.1847H56.8386V22.9018C58.512 24.773 60.9233 25.9546 63.6179 25.9546C68.6703 25.9546 72.771 21.8164 72.771 16.7052C72.771 11.594 68.6703 7.45052 63.6179 7.45052" fill="#414042"/>
<path d="M85.1415 23.5265C81.4631 23.5265 78.4691 20.3667 78.4691 16.6883C78.4691 13.01 81.4631 9.87162 85.1415 9.87162C88.8198 9.87162 91.8138 13.0046 91.8138 16.6883C91.8138 20.3721 88.8252 23.5265 85.1415 23.5265ZM91.8352 10.5346C90.1404 8.64194 87.6864 7.44434 84.9436 7.44434C79.8271 7.44434 75.6836 11.5878 75.6836 16.699C75.6836 21.8102 79.8271 25.9484 84.9436 25.9537C87.6864 25.9537 90.1404 24.7508 91.8352 22.8635V25.1839H94.2572V8.52432H91.8352V10.5346Z" fill="#414042"/>
<path d="M168.151 0.120117H163.9V4.14065H168.151V0.120117Z" fill="#414042"/>
<path d="M109.388 2.43555H105.496V21.5117V25.1633H118.247V21.5117H109.388V2.43555Z" fill="#414042"/>
<path d="M168.151 7.2793H163.9V25.1311H168.151V7.2793Z" fill="#414042"/>
<path d="M129.032 22.0615C126.193 22.0615 123.884 19.5914 123.884 16.5439C123.884 13.4965 126.193 11.0264 129.032 11.0264C131.871 11.0264 134.181 13.4965 134.181 16.5439C134.181 19.5914 131.871 22.0615 129.032 22.0615ZM129.032 7.21973C123.884 7.21973 119.697 11.3953 119.697 16.5493C119.697 21.7033 123.878 25.8735 129.032 25.8735C134.186 25.8735 138.356 21.7033 138.356 16.5493C138.356 11.3953 134.181 7.21973 129.032 7.21973Z" fill="#414042"/>
<path d="M185.865 19.0574C185.015 20.8698 183.272 22.1102 181.256 22.1102C178.412 22.1102 176.102 19.6294 176.102 16.582C176.102 13.2565 178.412 11.0591 181.256 11.0591C183.176 11.0591 184.849 12.1818 185.737 13.8446H190.185C189.019 10.0272 185.459 7.24707 181.256 7.24707C176.102 7.24707 171.916 11.428 171.916 16.5873C171.916 21.7466 176.102 25.9169 181.256 25.9169C185.555 25.9169 189.169 23.0084 190.254 19.0574H185.86H185.865Z" fill="#414042"/>
<path d="M149.781 31.3323C147.877 31.3323 146.06 30.3379 144.958 28.8408L141.184 30.6747C142.964 33.4655 145.942 35.3261 149.781 35.3207C154.758 35.3207 158.827 31.3858 159.233 26.6221H154.967C154.598 29.2846 152.416 31.3323 149.781 31.3323Z" fill="#414042"/>
<path d="M149.978 22.1527C147.149 22.1527 144.845 19.6826 144.845 16.6512C144.845 13.6198 147.144 11.1551 149.978 11.1551C152.811 11.1551 155.116 13.6144 155.116 16.6512C155.116 19.688 152.817 22.1527 149.978 22.1527ZM155.431 9.13945C153.897 8.02739 152.015 7.36443 149.978 7.36443C144.845 7.36443 140.686 11.5186 140.686 16.6566C140.686 21.7945 144.85 25.9433 149.978 25.9433C155.105 25.9433 159.248 21.8052 159.27 16.694V7.29492H155.431V9.13945Z" fill="#414042"/>
<path d="M197.492 2.3071C197.615 2.3071 197.722 2.32849 197.823 2.36592C197.919 2.40334 198.005 2.46215 198.075 2.52631C198.144 2.59581 198.197 2.67601 198.235 2.7669C198.272 2.85779 198.288 2.95402 198.288 3.05561C198.288 3.216 198.256 3.35501 198.187 3.47263C198.117 3.59025 198.01 3.6758 197.855 3.73995C197.93 3.76668 197.989 3.79876 198.037 3.84154C198.085 3.88431 198.123 3.93242 198.155 3.99124C198.187 4.05005 198.208 4.10886 198.224 4.17836C198.24 4.24787 198.246 4.31737 198.251 4.38687C198.251 4.42964 198.251 4.48311 198.256 4.53657C198.262 4.59004 198.262 4.6542 198.267 4.71835C198.272 4.77716 198.283 4.83597 198.299 4.88944C198.315 4.9429 198.336 4.99102 198.363 5.02845H197.764C197.732 4.9429 197.711 4.84132 197.706 4.71835C197.7 4.60073 197.684 4.48311 197.674 4.37618C197.652 4.23183 197.609 4.13024 197.545 4.06074C197.481 3.99658 197.369 3.95916 197.219 3.95916H196.62V5.0231H196.021V2.30176H197.486L197.492 2.3071ZM197.278 3.53679C197.417 3.53679 197.518 3.50471 197.588 3.4459C197.657 3.38709 197.69 3.2855 197.69 3.1465C197.69 3.00749 197.657 2.9166 197.588 2.85779C197.518 2.79898 197.417 2.7669 197.278 2.7669H196.62V3.53144H197.278V3.53679Z" fill="#414042"/>
<path d="M197.14 6.52539C195.562 6.52539 194.279 5.24224 194.279 3.66504C194.279 2.08784 195.562 0.804688 197.14 0.804688C198.717 0.804688 200 2.08784 200 3.66504C200 5.24224 198.717 6.52539 197.14 6.52539ZM197.14 1.28052C195.824 1.28052 194.755 2.34981 194.755 3.66504C194.755 4.98026 195.824 6.04955 197.14 6.04955C198.455 6.04955 199.524 4.98026 199.524 3.66504C199.524 2.34981 198.455 1.28052 197.14 1.28052Z" fill="#414042"/>
</g>
<defs>
<clipPath id="clip0_871_2232">
<rect width="200" height="35.201" fill="white" transform="translate(0 0.120117)"/>
</clipPath>
</defs>
</svg>
