<svg width="13" height="13" viewBox="0 0 13 13" fill="none" xmlns="http://www.w3.org/2000/svg">
<path fill-rule="evenodd" clip-rule="evenodd" d="M4.02256 2.97778L3.01747 1.60721C2.94912 1.514 2.81995 1.49025 2.72291 1.55304C1.40796 2.40389 1.0465 3.70362 1.57405 4.66175C2.15101 5.7096 3.04085 6.99467 4.40576 8.35958C5.77066 9.72448 7.05573 10.6143 8.10358 11.1913C9.06171 11.7188 10.3614 11.3574 11.2123 10.0424C11.2751 9.94538 11.2513 9.81621 11.1581 9.74787L9.78755 8.74278C9.586 8.59497 9.31871 8.57232 9.09516 8.6841L8.54886 8.95725C8.08421 9.18957 7.44726 9.27119 6.84431 8.961C6.4412 8.75361 5.8199 8.3595 5.11286 7.65247C4.40583 6.94544 4.01172 6.32414 3.80433 5.92103C3.49414 5.31808 3.57576 4.68112 3.80808 4.21647L4.08124 3.67017C4.19301 3.44662 4.17036 3.17933 4.02256 2.97778ZM1.99858 0.433611C0.304905 1.52952 -0.566934 3.5377 0.406065 5.30485C1.04108 6.45816 2.00564 7.84508 3.46295 9.30239C4.92025 10.7597 6.30717 11.7242 7.46048 12.3593C9.22763 13.3323 11.2358 12.4604 12.3317 10.7668C12.7781 10.0769 12.6092 9.15859 11.9466 8.67266L10.576 7.66757C9.97139 7.22416 9.16952 7.1562 8.49888 7.49153L7.95258 7.76468C7.79443 7.84375 7.61149 7.85625 7.45427 7.77537C7.16783 7.628 6.6602 7.31419 6.05567 6.70966C5.45114 6.10513 5.13733 5.59751 4.98996 5.31106C4.90908 5.15384 4.92158 4.9709 5.00065 4.81276L5.27381 4.26645C5.60913 3.59581 5.54117 2.79394 5.09776 2.1893L4.09267 0.818722C3.60674 0.156091 2.68846 -0.0127839 1.99858 0.433611Z" fill="#0C0C12"/>
</svg>
