<svg width="16" height="17" viewBox="0 0 16 17" fill="none" xmlns="http://www.w3.org/2000/svg">
<path fill-rule="evenodd" clip-rule="evenodd" d="M6.02256 4.97778L5.01747 3.60721C4.94912 3.514 4.81995 3.49025 4.72291 3.55304C3.40796 4.40389 3.0465 5.70362 3.57405 6.66175C4.15101 7.7096 5.04085 8.99467 6.40576 10.3596C7.77066 11.7245 9.05573 12.6143 10.1036 13.1913C11.0617 13.7188 12.3614 13.3574 13.2123 12.0424C13.2751 11.9454 13.2513 11.8162 13.1581 11.7479L11.7875 10.7428C11.586 10.595 11.3187 10.5723 11.0952 10.6841L10.5489 10.9572C10.0842 11.1896 9.44726 11.2712 8.84431 10.961C8.4412 10.7536 7.8199 10.3595 7.11286 9.65247C6.40583 8.94544 6.01172 8.32414 5.80433 7.92103C5.49414 7.31808 5.57576 6.68112 5.80808 6.21647L6.08124 5.67017C6.19301 5.44662 6.17036 5.17933 6.02256 4.97778ZM3.99858 2.43361C2.3049 3.52952 1.43307 5.5377 2.40607 7.30485C3.04108 8.45816 4.00564 9.84508 5.46295 11.3024C6.92025 12.7597 8.30717 13.7242 9.46048 14.3593C11.2276 15.3323 13.2358 14.4604 14.3317 12.7668C14.7781 12.0769 14.6092 11.1586 13.9466 10.6727L12.576 9.66757C11.9714 9.22416 11.1695 9.1562 10.4989 9.49153L9.95258 9.76468C9.79443 9.84375 9.61149 9.85625 9.45427 9.77537C9.16783 9.628 8.6602 9.31419 8.05567 8.70966C7.45114 8.10513 7.13733 7.59751 6.98996 7.31106C6.90908 7.15384 6.92158 6.9709 7.00065 6.81276L7.27381 6.26645C7.60913 5.59581 7.54117 4.79394 7.09776 4.1893L6.09267 2.81872C5.60674 2.15609 4.68846 1.98722 3.99858 2.43361Z" fill="#DBEBFF"/>
</svg>
