<svg width="50" height="49" viewBox="0 0 50 49" fill="none" xmlns="http://www.w3.org/2000/svg">
<path fill-rule="evenodd" clip-rule="evenodd" d="M24.999 48.5C-0.50097 48.5 0.999268 49.9999 0.999034 24.5C0.9988 -1.00012 -0.500741 0.500031 24.999 0.500025C50.499 0.500018 48.999 -1.00011 48.999 24.5C48.999 50 50.499 48.5 24.999 48.5ZM26.0368 18.5111C23.8873 19.4051 19.5913 21.2556 13.1489 24.0625C12.1028 24.4785 11.5547 24.8855 11.5048 25.2834C11.4205 25.956 12.2628 26.2208 13.4096 26.5814C13.5656 26.6305 13.7273 26.6813 13.893 26.7352C15.0214 27.102 16.5392 27.5311 17.3283 27.5481C18.044 27.5636 18.8429 27.2685 19.7249 26.6629C25.7442 22.5996 28.8515 20.5459 29.0465 20.5016C29.1842 20.4704 29.3749 20.4311 29.5041 20.5459C29.6333 20.6608 29.6206 20.8783 29.6069 20.9366C29.5235 21.2923 26.2175 24.3659 24.5066 25.9565C23.9732 26.4523 23.5949 26.8041 23.5176 26.8844C23.3443 27.0644 23.1678 27.2346 22.9981 27.3982C21.9498 28.4087 21.1637 29.1665 23.0416 30.404C23.944 30.9987 24.6662 31.4905 25.3866 31.9811C26.1734 32.5169 26.9581 33.0513 27.9734 33.7169C28.2321 33.8865 28.4792 34.0626 28.7198 34.2341C29.6354 34.8869 30.458 35.4733 31.4743 35.3798C32.0648 35.3255 32.6748 34.7702 32.9846 33.1141C33.7167 29.2003 35.1558 20.7202 35.4884 17.2257C35.5175 16.9196 35.4808 16.5277 35.4514 16.3557C35.422 16.1837 35.3605 15.9387 35.1369 15.7573C34.8721 15.5424 34.4633 15.4971 34.2805 15.5002C33.4493 15.515 32.1741 15.9584 26.0368 18.5111Z" fill="white"/>
</svg>
