<svg width="50" height="49" viewBox="0 0 50 49" fill="none" xmlns="http://www.w3.org/2000/svg">
<path fill-rule="evenodd" clip-rule="evenodd" d="M24.9991 0.50006C-0.500735 0.500097 0.998972 -0.999796 0.999058 24.5001C0.999143 49.9999 -0.500715 48.4999 24.9991 48.5001C50.4991 48.5002 48.9991 50.0002 48.9991 24.5001C48.9991 -1.00008 50.4988 0.500023 24.9991 0.50006ZM29.6764 12.5001C29.6764 12.8567 29.7097 13.2079 29.7711 13.5478C30.0662 15.1192 30.9961 16.4676 32.2878 17.3089C33.1898 17.8996 34.2588 18.2396 35.4113 18.2396L35.4111 19.159V22.363C33.273 22.363 31.291 21.6777 29.6763 20.5186V28.9049C29.6763 33.0898 26.269 36.5001 22.0877 36.5001C20.4731 36.5001 18.9698 35.9873 17.7393 35.1236C15.7796 33.7472 14.4991 31.4737 14.4991 28.9049C14.4991 24.7146 17.9009 21.3099 22.0821 21.3154C22.4329 21.3154 22.7725 21.3433 23.1066 21.3879V22.363L23.0944 22.3689L23.1066 22.3686V25.6006C22.7837 25.5002 22.4385 25.439 22.0821 25.439C20.1724 25.439 18.6191 26.9937 18.6191 28.9049C18.6191 30.2368 19.3763 31.3902 20.4786 31.9753C20.4889 31.9894 20.4994 32.0034 20.5099 32.0174L20.5284 32.0417C20.5157 32.0173 20.501 31.9932 20.4843 31.9697C20.9686 32.2261 21.5142 32.3709 22.0933 32.3709C23.9584 32.3709 25.484 30.8832 25.5508 29.0332L25.5563 12.5001H29.6764Z" fill="white"/>
</svg>
